<?xml version="1.0" standalone="no"?>
<!DOCTYPE svg PUBLIC "-//W3C//DTD SVG 20010904//EN"
 "http://www.w3.org/TR/2001/REC-SVG-20010904/DTD/svg10.dtd">
<svg version="1.0" xmlns="http://www.w3.org/2000/svg"
 width="1803.000000pt" height="1159.000000pt" viewBox="0 0 1803.000000 1159.000000"
 preserveAspectRatio="xMidYMid meet">

<g transform="translate(0.000000,1159.000000) scale(0.100000,-0.100000)"
fill="#000000" stroke="none">
<path d="M767 5529 c-21 -5 -52 -16 -69 -25 -32 -17 -67 -15 -148 6 -53 14
-103 7 -167 -21 -50 -23 -56 -26 -138 -71 -96 -53 -130 -66 -188 -73 l-57 -7
0 -120 c0 -77 4 -117 10 -113 6 3 10 1 10 -4 0 -19 22 -12 27 8 6 25 51 45 68
31 9 -7 16 -6 25 6 8 8 22 13 33 10 23 -6 47 15 48 41 1 12 3 10 8 -7 l7 -25
7 26 c8 30 38 53 82 62 17 4 45 9 62 13 18 3 33 10 33 15 0 5 23 9 51 9 43 0
50 3 45 16 -10 26 13 44 58 45 22 0 35 3 28 6 -17 7 -5 23 19 23 10 0 19 7 19
15 0 10 10 15 33 15 l32 -1 -25 -15 -25 -14 30 2 c18 2 29 8 28 16 -2 7 7 12
21 12 13 0 33 3 43 7 15 6 13 9 -12 14 -19 4 -1 6 48 7 42 0 77 -3 77 -9 0 -5
21 -9 46 -9 25 0 54 -5 64 -10 17 -9 21 -6 26 16 5 19 9 22 15 12 7 -10 9 -9
9 5 0 9 5 17 10 17 6 0 10 -5 10 -11 0 -16 26 -39 45 -39 16 0 37 38 28 52 -5
9 54 4 63 -5 4 -4 -6 -12 -22 -19 -29 -12 -29 -13 20 -16 29 -2 53 2 60 9 8 8
6 10 -11 4 -27 -7 -52 3 -34 15 23 13 -101 67 -182 79 -90 13 -215 13 -270 0z
m-644 -226 c-7 -2 -21 -2 -30 0 -10 3 -4 5 12 5 17 0 24 -2 18 -5z"/>
<path d="M780 5370 c-24 -8 -23 -8 8 -9 20 -1 31 3 27 9 -3 6 -7 10 -8 9 -1
-1 -13 -5 -27 -9z"/>
<path d="M1535 5330 c-3 -5 1 -10 10 -10 9 0 13 5 10 10 -3 6 -8 10 -10 10 -2
0 -7 -4 -10 -10z"/>
<path d="M1490 5310 c0 -5 7 -7 15 -4 8 4 15 8 15 10 0 2 -7 4 -15 4 -8 0 -15
-4 -15 -10z"/>
<path d="M9687 4086 c-26 -7 -56 -21 -66 -30 -11 -10 -24 -15 -30 -12 -5 4
-12 2 -16 -4 -3 -5 -14 -10 -25 -10 -10 0 -21 -7 -24 -16 -5 -13 -19 -15 -87
-10 -45 3 -84 7 -86 10 -3 3 -16 1 -29 -4 -13 -5 -24 -6 -24 -2 0 4 -24 8 -53
9 -99 4 -112 6 -122 13 -13 10 -124 10 -130 0 -2 -4 -15 -5 -28 -3 -13 3 -30
-2 -39 -10 -11 -12 -18 -13 -27 -4 -8 8 -11 8 -11 -1 0 -7 -3 -11 -7 -10 -5 1
-21 -5 -38 -13 -16 -8 -40 -14 -52 -14 -12 1 -24 -4 -27 -11 -4 -10 -15 -12
-37 -7 -26 5 -35 2 -50 -18 -10 -13 -21 -24 -26 -25 -4 0 -16 -4 -25 -7 -10
-4 -25 -9 -33 -12 -9 -3 -22 -19 -30 -37 -8 -18 -14 -28 -15 -21 0 14 -28 43
-41 43 -5 0 -12 -12 -15 -26 -4 -17 -9 -22 -14 -14 -13 21 -57 14 -87 -14 -27
-25 -165 -98 -208 -110 -55 -15 -80 -15 -96 0 -11 10 -19 12 -24 5 -3 -6 -15
-11 -26 -11 -10 0 -19 -6 -19 -14 0 -18 -20 -34 -50 -38 -14 -2 -36 -11 -50
-21 -13 -9 -29 -17 -35 -17 -6 0 -16 -5 -22 -11 -6 -6 -42 -13 -80 -15 -37 -2
-95 -7 -128 -12 -33 -5 -66 -7 -72 -5 -7 3 -13 0 -13 -6 0 -15 -47 -14 -54 2
-3 8 -8 7 -16 -5 -6 -10 -18 -18 -25 -18 -8 0 -15 -4 -15 -10 0 -14 -54 -12
-68 2 -9 9 -15 9 -24 0 -7 -7 -23 -12 -37 -12 -15 0 -37 -6 -51 -13 -14 -7
-46 -13 -72 -12 -30 0 -50 -5 -53 -13 -3 -9 -10 -10 -24 -3 -10 6 -21 8 -24 5
-3 -3 -16 -7 -29 -9 -30 -4 -64 -12 -91 -21 -12 -4 -31 -8 -42 -8 -11 -1 -25
-5 -31 -8 -16 -11 -150 -58 -162 -58 -6 0 -31 -13 -55 -30 -25 -16 -54 -30
-66 -30 -12 0 -21 -4 -21 -10 0 -5 -12 -10 -26 -10 -19 0 -25 -4 -21 -15 7
-17 -9 -30 -18 -15 -4 6 -9 8 -13 6 -4 -2 -46 -7 -94 -10 -76 -5 -88 -4 -97
11 -8 13 -13 15 -18 7 -8 -12 -38 -17 -78 -15 -12 1 -29 15 -39 32 l-19 32
-12 -29 -13 -29 -11 28 c-6 16 -9 33 -5 38 3 5 -1 9 -9 9 -7 0 -20 -12 -27
-26 -13 -23 -15 -24 -21 -7 -7 17 -8 17 -8 -1 -1 -18 -2 -18 -25 3 -18 17 -26
19 -32 10 -5 -9 -11 -5 -20 16 -9 22 -20 31 -41 33 -180 18 -261 17 -298 -2
-16 -9 -38 -16 -47 -16 -10 0 -18 -4 -18 -10 0 -5 -9 -10 -20 -10 -11 0 -23
-7 -27 -15 -5 -14 -7 -14 -24 1 -16 14 -21 15 -48 1 -22 -11 -40 -13 -68 -7
-21 5 -39 7 -42 5 -2 -2 -11 0 -21 5 -20 11 -60 -13 -60 -36 0 -8 -10 -14 -23
-14 -13 0 -27 -3 -31 -7 -10 -11 -40 -10 -47 1 -4 5 -13 5 -20 0 -8 -5 -16 -9
-19 -10 -19 -4 -46 -20 -53 -31 -6 -11 -12 -11 -22 -3 -10 8 -15 7 -19 -7 -4
-10 -20 -28 -37 -39 -27 -19 -34 -20 -56 -9 -27 14 -53 10 -53 -9 0 -6 -7 -3
-14 7 -14 18 -15 17 -21 -2 -3 -12 -20 -28 -36 -37 -17 -8 -39 -24 -50 -35
-11 -11 -24 -17 -29 -14 -5 3 -11 1 -15 -5 -4 -7 -12 -7 -25 0 -16 8 -22 6
-32 -12 -13 -23 -38 -30 -49 -14 -4 5 -10 -1 -14 -13 -8 -26 -25 -27 -32 -1
-3 11 -10 17 -15 14 -13 -8 -49 -94 -43 -103 2 -4 -2 -8 -9 -8 -7 0 -13 7 -12
16 1 11 -9 17 -30 19 -27 3 -38 -4 -73 -45 -36 -42 -41 -45 -41 -25 0 36 -32
24 -42 -16 -5 -17 -14 -32 -21 -32 -7 0 -20 -9 -30 -21 -12 -13 -24 -18 -37
-14 -15 5 -20 2 -21 -12 0 -10 -3 -13 -6 -5 -8 20 -36 15 -30 -7 2 -10 0 -26
-5 -35 -11 -20 -38 -21 -38 -1 0 8 -5 15 -10 15 -16 0 -24 -29 -12 -43 7 -8 7
-18 1 -27 -8 -13 -10 -13 -18 -1 -7 11 -11 10 -20 -7 -7 -13 -17 -18 -29 -15
-23 6 -35 -19 -23 -50 4 -12 6 -29 3 -37 -4 -11 1 -10 17 4 11 11 21 14 21 8
0 -18 30 -2 30 17 1 14 2 14 11 -2 6 -9 13 -16 17 -13 8 4 39 -26 34 -34 -2
-2 2 -6 9 -9 7 -2 9 1 5 8 -7 11 8 16 29 11 75 -19 73 -18 33 -19 -21 -1 -38
-5 -38 -10 0 -5 35 -9 78 -8 55 2 76 -1 75 -10 -3 -14 74 -28 112 -21 13 3 22
2 20 -2 -8 -12 76 -17 113 -8 20 6 38 6 45 0 20 -16 74 -24 82 -13 3 6 26 11
51 11 24 0 44 5 44 10 0 6 14 10 30 10 17 0 30 -4 30 -10 0 -5 20 -10 45 -10
25 0 45 5 45 10 0 6 25 10 55 10 30 0 55 -4 55 -10 0 -5 8 -10 18 -10 10 0 23
-5 30 -12 9 -9 12 -9 12 1 0 10 3 11 13 2 8 -6 17 -8 20 -4 4 3 7 -1 7 -10 0
-9 6 -18 13 -19 6 0 17 -2 22 -2 6 -1 16 -5 23 -9 6 -5 12 -5 12 -1 0 4 9 -1
20 -11 17 -16 20 -16 20 -2 0 9 -4 19 -10 22 -15 9 -12 22 6 29 12 4 14 1 9
-14 -5 -14 -2 -20 10 -20 9 0 14 -4 11 -9 -3 -5 5 -12 19 -15 14 -4 25 -14 25
-22 0 -11 5 -14 16 -10 11 4 18 -1 21 -14 7 -26 18 -25 30 2 10 23 10 23 26
-7 9 -17 16 -24 17 -17 0 6 7 12 17 12 9 0 14 -3 10 -6 -7 -7 17 -34 31 -34 6
0 13 -8 16 -17 6 -14 9 -15 16 -4 7 12 10 12 22 0 17 -18 22 -62 5 -53 -7 4
-4 -2 6 -12 15 -16 19 -17 27 -4 5 9 5 19 0 24 -10 10 -2 36 12 36 5 0 6 -4 3
-10 -3 -5 -1 -28 5 -51 9 -32 14 -39 21 -28 8 12 10 12 18 0 5 -8 16 -11 25
-8 8 3 22 0 30 -9 8 -8 19 -14 23 -13 20 3 34 -2 28 -11 -5 -9 15 -15 38 -11
4 0 7 -7 8 -17 0 -10 3 -12 6 -4 2 6 9 9 15 6 5 -3 4 3 -3 14 -9 15 -17 18
-25 11 -8 -7 -14 -6 -19 1 -4 6 -3 9 2 8 4 -2 8 0 8 3 0 4 8 16 18 27 15 17
16 21 2 32 -8 7 -23 9 -32 6 -15 -5 -15 -4 1 9 17 13 22 13 36 0 10 -9 20 -11
30 -5 11 7 11 10 3 11 -28 3 -32 4 -38 11 -4 4 -13 4 -21 1 -8 -3 -17 2 -20
11 -5 13 -9 14 -23 4 -12 -9 -11 -7 2 8 13 14 20 16 25 7 5 -7 13 -9 21 -4 10
6 4 11 -19 16 -21 5 -29 10 -22 17 6 6 17 6 31 -1 14 -8 21 -8 21 -1 0 5 -4
10 -10 10 -5 0 -10 5 -10 11 0 5 5 7 10 4 6 -3 10 1 10 11 0 14 3 14 15 4 9
-7 18 -10 22 -6 3 3 1 6 -5 6 -7 0 -12 5 -12 12 0 6 7 4 18 -5 10 -10 26 -17
35 -17 15 0 22 -11 18 -32 0 -5 8 -8 19 -8 12 0 20 -7 21 -17 0 -11 3 -13 6
-5 8 20 33 14 33 -9 0 -21 0 -21 18 -2 9 10 13 13 8 6 -6 -9 -3 -13 8 -13 11
0 14 -4 10 -12 -6 -10 -5 -10 7 -1 10 8 19 9 29 1 12 -8 11 -9 -5 -4 -20 6
-20 6 -1 -9 20 -15 20 -15 0 -16 -13 0 -15 -2 -5 -6 8 -3 20 2 28 13 7 10 13
12 13 6 0 -9 5 -10 19 -3 10 6 21 7 25 4 3 -3 6 -1 6 7 0 9 3 10 13 1 8 -6 13
-24 12 -41 -1 -16 2 -30 7 -30 5 0 6 -5 2 -12 -5 -8 -2 -9 11 -5 11 5 22 1 31
-10 12 -16 13 -16 8 -1 -4 13 -1 15 15 11 18 -5 19 -8 9 -22 -10 -13 -10 -14
2 -3 8 6 23 12 35 12 16 0 17 -2 5 -10 -13 -8 -12 -10 3 -10 10 0 16 -3 14 -7
-8 -13 16 -28 48 -30 17 0 24 1 18 4 -7 2 -13 12 -12 21 0 11 2 12 6 5 3 -9
26 -13 66 -13 55 0 59 -1 42 -14 -19 -13 -18 -15 15 -24 27 -8 29 -10 12 -11
-22 -1 -22 -2 10 -31 27 -26 35 -28 42 -16 8 12 17 11 57 -9 29 -15 49 -33 52
-47 5 -18 9 -20 19 -10 17 17 38 15 55 -5 14 -17 14 -17 9 0 -4 14 -1 18 12
15 9 -2 16 -11 16 -21 -1 -9 2 -14 7 -11 5 3 9 0 9 -5 0 -6 -5 -11 -12 -11 -7
0 -6 -5 4 -12 9 -7 18 -20 22 -28 3 -8 4 -1 1 15 -2 17 -2 24 1 18 9 -21 26
-15 19 7 -4 12 -2 20 5 20 6 0 9 -4 6 -9 -4 -5 -1 -11 5 -13 5 -2 7 -11 4 -21
-4 -9 -11 -14 -16 -11 -16 10 -9 -9 9 -22 23 -18 35 -17 28 2 -3 9 -2 12 5 9
6 -4 8 -13 6 -19 -3 -7 -1 -19 4 -27 7 -11 9 -10 10 6 l0 20 9 -20 c6 -13 9
-15 9 -5 1 13 2 13 11 0 8 -13 10 -12 10 3 0 9 5 17 11 17 5 0 7 6 3 13 -6 10
-4 10 7 0 18 -18 39 -16 39 2 0 8 7 15 16 15 8 0 13 -4 9 -10 -10 -17 6 -59
21 -53 8 3 12 8 9 12 -2 4 2 8 10 8 22 0 19 -5 -17 -28 -26 -16 -28 -20 -10
-16 12 3 22 1 22 -4 0 -5 -4 -9 -10 -9 -5 0 -10 -4 -10 -10 0 -5 6 -7 13 -4 7
2 24 -6 37 -18 18 -17 22 -18 17 -5 -3 9 -2 17 3 17 16 0 0 27 -23 38 l-22 10
23 -1 c12 -1 22 -5 22 -10 0 -5 8 -3 18 4 16 13 16 12 3 -4 -12 -15 -12 -20
-2 -27 11 -6 11 -9 0 -13 -10 -4 -9 -6 4 -6 9 -1 17 4 17 10 0 5 5 7 10 4 6
-4 18 -1 26 6 8 6 17 9 20 6 3 -3 -7 -13 -23 -21 -21 -12 -23 -16 -8 -14 11 1
26 -1 32 -5 7 -4 22 -3 33 3 24 13 70 6 82 -12 4 -7 8 -8 8 -3 0 6 36 9 95 7
74 -3 95 -6 95 -18 0 -8 5 -14 11 -14 6 0 9 7 5 15 -4 12 3 15 37 15 37 1 40
2 24 14 -17 13 -17 14 0 20 13 6 14 9 4 15 -9 6 -7 10 9 14 25 6 50 -1 50 -14
0 -14 -18 -11 -23 4 -2 6 -8 9 -12 5 -14 -14 8 -30 36 -26 16 3 29 1 29 -4 0
-4 -10 -8 -22 -8 -30 0 -11 -17 25 -24 16 -3 35 -10 43 -17 8 -6 14 -7 14 -2
0 5 -11 16 -25 23 -25 13 -34 30 -16 30 5 0 12 -7 15 -16 4 -9 13 -14 21 -10
14 5 20 -5 16 -27 -1 -5 3 -6 9 -2 6 3 8 11 5 16 -3 5 1 6 10 3 8 -4 22 -1 30
6 10 9 15 9 15 1 0 -6 9 -11 21 -11 11 0 17 -5 14 -10 -3 -5 1 -10 10 -10 11
0 15 5 12 14 -4 10 0 14 14 11 10 -2 23 -6 28 -10 5 -3 13 0 17 6 5 8 3 9 -6
4 -10 -6 -12 -4 -7 9 4 10 3 15 -3 11 -6 -3 -10 -2 -10 3 0 5 9 12 20 15 14 4
18 11 14 24 -3 10 -2 14 3 8 10 -12 85 -16 77 -4 -3 5 -12 9 -20 9 -8 0 -12 5
-9 10 10 16 23 12 35 -11 9 -17 8 -23 -6 -34 -17 -12 -16 -13 4 -19 12 -4 20
-11 18 -14 -2 -4 6 -12 20 -19 21 -10 23 -9 14 7 -13 24 -13 30 1 30 5 0 8 -4
5 -9 -3 -5 1 -14 9 -21 8 -7 12 -16 9 -21 -3 -5 -2 -9 3 -9 4 0 8 -11 8 -24 0
-16 -4 -22 -14 -18 -10 4 -13 1 -8 -12 4 -10 7 -20 7 -24 0 -12 29 34 30 47 0
29 48 60 89 58 22 -1 38 -5 35 -8 -2 -4 -1 -14 2 -23 9 -22 26 -8 19 15 -5 13
-2 19 10 19 9 0 13 5 10 10 -3 6 -2 10 4 10 5 0 13 -4 16 -10 3 -5 12 -10 18
-9 9 0 9 2 0 6 -18 7 -16 20 2 20 8 0 15 -4 15 -9 0 -5 4 -7 9 -4 5 4 7 -2 4
-13 -3 -13 -11 -17 -25 -13 -14 3 -19 1 -14 -6 10 -16 35 -15 42 2 7 18 42 27
51 14 3 -7 1 -8 -5 -4 -7 4 -12 2 -12 -4 0 -6 -5 -8 -12 -4 -7 4 -8 3 -4 -5 4
-6 12 -9 17 -6 5 4 9 3 9 -2 0 -4 13 -8 29 -8 16 0 29 2 29 5 -2 21 4 29 20
24 10 -4 13 -3 6 3 -6 4 -14 17 -17 28 -6 17 -5 18 5 4 7 -9 19 -14 27 -11 8
3 11 0 7 -7 -5 -7 -1 -9 10 -4 12 4 15 3 10 -5 -5 -8 -2 -10 9 -6 13 5 13 8 2
18 -17 13 -32 50 -17 41 6 -3 10 -12 10 -20 0 -9 10 -14 28 -13 15 1 36 -2 47
-6 11 -4 16 -4 10 1 -15 12 -17 33 -3 33 6 0 1 8 -11 19 -18 16 -19 20 -5 25
8 3 24 1 34 -4 14 -8 20 -6 23 8 4 15 5 15 6 -2 1 -16 3 -17 18 -5 9 8 14 9
10 3 -4 -8 2 -11 18 -10 15 0 25 7 25 16 0 11 2 12 8 3 4 -7 26 -15 47 -18 29
-4 36 -3 25 4 -13 9 -13 11 2 11 9 0 19 -6 21 -12 3 -8 6 -6 6 5 1 9 9 17 19
17 14 0 15 -2 2 -10 -13 -9 -13 -10 0 -10 9 0 21 5 28 12 9 9 13 7 18 -5 3 -9
11 -17 16 -17 7 0 6 5 -1 14 -16 19 -3 46 23 47 19 1 19 2 -4 9 -17 5 3 8 59
8 54 0 79 -3 70 -9 -9 -5 -10 -9 -2 -9 6 0 15 5 18 10 3 6 11 10 16 10 6 0 8
-4 4 -9 -3 -5 0 -13 6 -17 8 -4 9 -3 5 4 -4 7 -2 12 4 12 6 0 9 4 6 8 -3 4 8
7 25 6 16 -1 27 2 24 6 -3 4 1 10 9 13 10 4 12 0 9 -14 -4 -15 -2 -18 11 -13
9 3 13 10 10 15 -3 5 2 6 10 3 8 -3 17 -13 21 -22 5 -14 7 -14 16 -2 8 12 12
12 16 2 3 -9 14 -1 30 23 14 20 27 34 30 31 3 -3 0 -12 -7 -21 -10 -12 -9 -16
5 -21 9 -4 21 -2 27 4 14 14 20 84 6 76 -5 -3 -7 -15 -5 -26 6 -22 -1 -48 -13
-48 -4 0 -5 11 -2 25 2 14 -2 33 -9 42 -11 13 -11 15 -1 9 10 -6 13 0 10 25
-2 21 3 39 12 47 8 8 10 11 5 8 -6 -2 -17 5 -25 17 -11 19 -11 20 1 10 12 -10
14 -5 14 33 -1 47 3 52 24 32 8 -7 11 -8 8 -2 -3 6 0 11 8 11 9 0 11 -5 6 -16
-5 -9 -6 -22 -3 -30 3 -9 0 -11 -8 -6 -9 6 -11 4 -5 -5 6 -10 11 -9 21 5 7 10
11 22 8 27 -3 5 0 15 6 23 13 16 9 18 -32 18 -10 0 -14 5 -11 14 4 11 8 11 13
3 8 -13 20 -13 37 1 13 12 28 -5 18 -21 -3 -5 -1 -10 5 -10 6 0 9 -4 6 -8 -3
-5 1 -9 9 -9 8 0 12 4 9 9 -3 4 3 8 13 8 15 0 15 2 3 9 -8 6 -18 7 -24 4 -5
-4 -6 -1 -2 6 5 7 11 10 14 7 3 -3 11 -1 18 5 8 6 14 7 18 0 8 -13 36 -3 58
21 10 12 29 19 50 18 18 0 43 0 56 0 12 0 22 -5 22 -11 0 -7 10 -9 24 -5 15 4
28 0 37 -10 7 -8 26 -22 42 -30 27 -14 30 -14 48 7 15 18 19 19 19 6 0 -13 9
-16 39 -14 39 2 48 17 10 17 -12 0 -19 7 -19 20 0 11 5 20 11 20 5 0 7 5 3 12
-4 7 -3 8 4 4 7 -4 12 -14 12 -22 0 -8 5 -14 10 -14 6 0 10 10 10 23 1 20 2
21 14 5 7 -10 16 -15 20 -11 3 4 13 -2 21 -13 14 -18 14 -18 15 0 0 15 3 16
15 6 8 -7 16 -9 16 -4 1 5 2 16 3 24 0 8 8 16 18 18 11 2 18 -6 23 -27 7 -32
25 -43 25 -16 0 8 -5 15 -11 15 -6 0 -4 7 5 15 8 8 22 15 30 15 18 0 22 40 5
57 -7 7 -3 12 16 17 22 6 25 9 14 22 -7 8 -20 12 -30 9 -14 -5 -17 -2 -13 9 3
9 1 16 -4 16 -6 0 -14 9 -17 20 -4 11 -15 20 -27 20 -17 0 -18 2 -8 15 10 13
9 15 -8 15 -43 0 -31 19 14 22 27 2 49 8 52 16 2 7 0 11 -5 10 -4 -2 -9 1 -11
6 -3 10 8 13 70 20 30 3 38 0 44 -16 3 -11 12 -17 20 -14 8 3 14 2 14 -2 0
-13 116 -64 136 -60 11 2 18 -2 17 -9 -1 -6 4 -14 13 -17 8 -3 12 -2 9 4 -3 6
-1 10 5 10 6 0 13 -7 17 -16 5 -13 7 -13 14 -2 7 10 9 9 9 -5 0 -12 4 -16 13
-10 6 4 14 8 17 9 3 0 13 4 23 8 21 10 47 1 47 -16 0 -10 -2 -10 -9 0 -7 11
-10 10 -15 -3 -9 -24 -7 -32 4 -15 9 13 10 13 10 0 1 -9 6 -5 16 10 15 25 15
25 8 1 -4 -15 -2 -21 4 -17 5 3 13 -1 16 -10 3 -8 10 -13 15 -10 5 4 12 0 15
-6 3 -7 3 -3 0 10 -8 32 2 27 14 -7 9 -26 8 -29 -9 -26 -10 2 -19 -2 -19 -8 0
-7 11 -12 25 -12 14 0 25 3 25 6 0 3 6 6 13 6 6 0 24 3 38 6 21 4 29 0 38 -19
11 -25 30 -31 47 -14 7 7 19 4 36 -10 15 -11 40 -20 58 -20 18 0 29 -4 25 -10
-3 -5 -2 -10 4 -10 5 0 12 6 14 13 4 9 6 9 6 -1 1 -8 6 -10 14 -5 18 11 49 14
43 4 -12 -18 7 -41 32 -41 14 0 22 3 19 7 -11 10 36 29 61 25 12 -2 22 -8 22
-12 0 -4 11 -5 24 -3 13 3 27 0 30 -6 4 -6 31 -10 59 -10 29 1 44 3 35 6 -24
6 -23 23 1 23 17 0 48 26 40 34 -12 11 -48 15 -54 6 -3 -5 -23 -10 -43 -9 -30
0 -33 2 -17 9 19 8 17 11 -15 14 -8 0 -14 7 -12 14 3 16 -15 16 -21 0 -4 -10
-6 -9 -6 1 -1 11 -4 11 -16 1 -18 -15 -20 1 -3 18 9 9 8 12 -4 12 -9 0 -24 10
-32 21 -9 13 -26 22 -44 23 -21 1 -28 5 -24 15 4 9 1 12 -7 7 -6 -4 -23 0 -36
8 -14 9 -25 13 -25 9 0 -5 -5 -1 -10 7 -7 12 -15 13 -37 4 -31 -11 -66 -7 -58
6 11 19 -17 47 -42 42 -19 -4 -33 5 -61 34 -41 44 -79 71 -134 97 -20 10 -40
22 -43 27 -3 6 -21 10 -40 10 -18 0 -35 5 -37 12 -2 6 -13 12 -24 13 -11 0
-37 9 -58 19 -21 10 -44 15 -52 12 -8 -3 -14 -2 -14 3 0 7 -81 21 -133 22 -9
0 -15 5 -11 11 4 7 0 7 -12 1 -17 -8 -35 -9 -74 -4 -22 2 -8 21 16 21 14 0 23
4 19 10 -3 6 -1 10 4 10 6 0 11 -5 11 -11 0 -7 9 -9 23 -5 12 4 35 8 50 9 15
1 31 8 36 15 5 9 11 5 19 -13 6 -14 17 -25 24 -26 24 -2 73 -2 103 0 23 1 26
4 15 11 -8 5 -12 10 -10 12 32 20 50 27 50 17 0 -5 4 -8 9 -5 5 3 11 -1 15 -9
3 -9 18 -15 35 -15 17 0 34 -6 38 -13 11 -18 41 -28 48 -17 4 6 15 10 25 10
10 0 23 7 28 16 6 10 12 13 16 6 3 -6 23 -8 45 -5 36 5 40 3 43 -18 3 -21 8
-24 38 -21 19 2 43 6 54 9 11 3 16 1 12 -5 -4 -6 2 -8 14 -5 11 3 20 10 20 15
0 6 7 5 16 -3 13 -10 17 -10 24 2 7 11 14 11 27 3 12 -7 29 -8 48 -2 38 11
144 0 124 -13 -10 -6 -4 -9 19 -9 24 0 32 -5 32 -17 1 -11 6 -6 14 12 12 29
13 29 20 8 4 -13 4 -28 0 -34 -4 -8 -3 -9 4 -5 7 4 12 15 13 24 0 12 3 11 9
-5 5 -13 11 -23 14 -23 2 0 2 10 -1 23 -3 16 -2 18 5 8 8 -11 11 -11 16 0 3 8
5 5 2 -7 -2 -12 2 -21 9 -21 7 0 10 8 7 21 -5 18 -4 18 10 5 9 -7 14 -17 12
-20 -2 -3 4 -6 12 -6 8 0 13 6 10 14 -4 10 2 10 31 -2 19 -8 44 -15 54 -15 11
0 19 -4 19 -10 0 -6 56 -10 149 -10 134 0 150 2 154 18 4 16 5 16 6 0 1 -14
10 -18 42 -18 24 0 38 -4 34 -10 -4 -6 12 -9 42 -9 l48 2 -40 7 -40 7 42 2
c25 0 43 -4 46 -11 4 -10 8 -9 16 2 7 10 11 11 11 3 0 -7 7 -13 16 -13 13 0
14 -3 5 -14 -8 -10 -8 -16 3 -25 11 -9 15 -9 19 1 3 7 6 4 6 -8 1 -19 6 -20
55 -16 44 3 62 0 90 -18 20 -12 40 -19 46 -15 5 3 10 1 10 -4 0 -7 28 -12 68
-13 63 -1 64 -1 22 -8 l-45 -6 45 -21 c60 -28 225 -39 234 -16 5 11 10 12 19
5 6 -6 21 -12 32 -14 11 -1 22 -5 25 -8 14 -16 84 -50 101 -50 10 0 19 -6 19
-12 0 -9 4 -8 10 2 7 12 9 9 8 -10 -4 -71 1 -87 32 -93 24 -5 30 -12 30 -32 0
-15 4 -24 10 -20 6 4 8 11 4 17 -3 5 8 2 25 -6 31 -16 31 -16 31 9 0 15 4 24
9 20 5 -3 12 7 14 22 3 22 4 20 6 -10 0 -23 -3 -36 -9 -32 -6 3 -10 -4 -10
-17 0 -17 2 -20 9 -9 7 11 10 9 14 -10 3 -19 5 -17 7 11 l3 35 7 -35 c5 -24 8
-28 9 -12 0 13 6 20 11 17 6 -4 7 -11 4 -17 -5 -8 -1 -9 10 -5 10 4 21 7 24 7
4 0 0 5 -8 10 -10 7 6 8 50 4 77 -8 91 -14 31 -14 -26 0 -40 -4 -36 -10 3 -5
27 -10 52 -10 36 0 44 -3 39 -15 -4 -13 8 -15 74 -15 47 0 80 -4 80 -10 0 -5
5 -10 11 -10 5 0 7 5 4 10 -3 6 -1 10 5 10 6 0 13 -7 16 -15 5 -13 54 -15 350
-15 l344 0 0 -34 c0 -32 1 -34 46 -39 26 -2 49 -9 53 -15 3 -5 52 -11 108 -14
56 -2 104 -6 107 -9 3 -3 7 -16 8 -30 3 -21 -1 -24 -34 -27 -44 -4 -55 -32
-13 -32 16 0 25 -6 25 -15 0 -8 5 -15 10 -15 6 0 10 11 10 25 0 24 3 25 60 25
33 0 60 -4 60 -10 0 -10 31 -16 133 -25 66 -7 95 -25 37 -25 -16 0 -30 -4 -30
-10 0 -5 -12 -10 -27 -10 -29 0 -70 -14 -133 -42 l-35 -16 31 -1 c17 -1 39
-10 49 -21 10 -11 30 -20 44 -21 14 0 20 -3 13 -6 -18 -7 -4 -23 21 -23 18 0
19 -2 7 -10 -12 -7 -8 -10 15 -10 24 0 27 -2 15 -10 -11 -8 -5 -10 25 -8 33 3
41 7 43 26 4 27 32 30 32 2 0 -11 5 -20 10 -20 6 0 10 -10 10 -21 0 -18 4 -20
23 -14 12 4 36 8 52 9 17 1 36 5 43 9 8 5 12 3 12 -7 0 -9 7 -16 15 -16 8 0
15 6 15 14 0 9 7 12 20 9 11 -3 20 -10 20 -15 0 -6 9 -8 20 -5 12 3 20 0 20
-7 0 -19 62 -51 105 -54 101 -8 157 -5 165 8 6 10 30 12 111 6 84 -5 106 -10
121 -26 23 -24 61 -26 79 -4 12 14 25 15 94 8 116 -13 235 -10 271 6 20 9 37
26 45 47 10 26 18 33 40 33 16 0 50 4 76 10 39 7 191 17 308 20 15 0 16 3 7 9
-8 5 6 7 35 6 26 -1 57 3 68 8 19 10 19 10 0 18 -12 4 17 8 72 8 60 1 93 5 95
13 3 7 27 10 69 9 82 -2 190 9 184 19 -6 10 51 24 64 16 5 -4 13 -1 17 5 4 7
3 9 -3 6 -6 -4 -13 -1 -16 7 -4 10 3 13 24 11 16 -1 31 1 34 5 2 4 23 6 45 5
22 -1 43 3 47 8 3 6 1 7 -5 3 -7 -4 -12 -1 -12 6 0 9 -3 9 -10 -2 -9 -13 -10
-13 -10 0 0 13 -1 13 -10 0 -5 -8 -10 -10 -10 -5 0 6 -12 12 -27 13 -15 1 -30
7 -34 13 -5 8 -8 8 -12 0 -3 -7 -5 -7 -3 1 2 8 17 13 39 12 20 0 37 4 37 10 0
6 5 4 10 -4 9 -13 10 -13 10 0 0 13 1 13 10 0 5 -8 10 -10 10 -5 0 6 50 9 135
7 113 -3 135 -1 135 11 0 8 7 18 16 21 26 10 152 7 159 -4 10 -17 75 -40 112
-40 20 0 32 -4 28 -10 -7 -12 18 -13 103 -4 34 4 59 11 56 15 -3 5 0 9 5 9 6
0 11 -6 11 -12 0 -10 3 -10 9 0 9 15 44 18 79 7 13 -4 22 -3 22 3 0 6 -8 13
-17 15 -17 4 -17 5 0 6 24 1 18 34 -8 43 -19 6 -18 6 3 7 l22 1 0 194 c0 146
-3 196 -12 200 -10 5 -10 7 0 12 9 4 12 138 12 620 0 541 -2 613 -15 608 -8
-4 -15 -1 -15 5 0 6 -4 11 -10 11 -5 0 -10 -7 -10 -15 0 -8 -8 -24 -17 -35
-18 -21 -18 -21 -23 7 -4 22 -11 28 -30 28 -23 0 -38 -18 -56 -70 -6 -19 -7
-18 -14 5 l-7 25 -8 -27 c-7 -29 -23 -36 -41 -18 -17 17 -64 -6 -64 -30 0 -11
-7 -20 -15 -20 -8 0 -15 8 -15 18 0 14 -2 14 -9 3 -5 -8 -20 -16 -33 -18 -13
-2 -28 -11 -35 -21 -26 -37 -48 -53 -73 -51 -37 3 -67 -10 -73 -31 -3 -14 -13
-17 -48 -15 -24 2 -49 -1 -55 -6 -7 -6 -15 1 -24 19 l-13 27 -11 -40 c-11 -39
-46 -63 -46 -31 0 8 -7 22 -16 31 -15 14 -17 14 -28 0 -16 -22 -42 -10 -55 26
-7 19 -17 29 -30 29 -12 0 -21 5 -21 11 0 5 -4 7 -10 4 -5 -3 -10 -17 -10 -30
0 -18 -4 -23 -15 -19 -8 4 -15 13 -15 21 0 15 -47 63 -61 63 -4 0 -10 -7 -13
-17 -6 -14 -8 -14 -21 3 -8 11 -15 14 -15 7 0 -18 -20 -16 -20 2 0 21 -10 19
-37 -7 l-23 -21 0 21 c0 11 -5 24 -10 27 -16 10 -50 -5 -50 -21 0 -8 -4 -14
-10 -14 -5 0 -10 9 -10 19 0 23 -16 36 -25 21 -5 -8 -11 -7 -22 1 -19 16 -32
-2 -34 -46 -1 -29 -1 -29 -11 7 -7 25 -14 35 -24 31 -8 -3 -14 0 -14 7 0 23
-25 3 -31 -26 l-6 -29 -10 35 c-8 23 -12 28 -12 14 -2 -33 -14 -37 -27 -7 -8
19 -13 22 -13 11 -1 -22 -10 -23 -26 -1 -11 14 -13 13 -19 -11 -7 -30 -51 -53
-70 -36 -9 6 -16 6 -24 -2 -9 -9 -16 -7 -30 12 -9 14 -17 28 -17 32 0 17 -14
17 -19 0 -6 -19 -75 -52 -108 -52 -32 0 -48 12 -48 37 0 15 -5 23 -12 20 -7
-2 -12 -10 -11 -16 4 -18 -7 -13 -27 11 -15 19 -20 20 -34 9 -13 -11 -19 -11
-31 -1 -12 10 -16 9 -21 -4 -8 -20 -31 -21 -51 -1 -12 12 -18 13 -29 4 -11 -9
-14 -8 -14 5 0 18 -16 22 -22 5 -2 -6 -25 -13 -50 -15 -47 -4 -47 -4 -54 31
-3 19 -10 35 -14 35 -4 0 -21 -16 -37 -35 -23 -26 -38 -35 -62 -35 -17 0 -31
4 -31 10 0 5 -6 7 -13 4 -8 -3 -20 10 -30 31 -20 41 -50 45 -55 7 -3 -19 -6
-21 -18 -11 -11 9 -14 7 -14 -10 0 -29 -36 -28 -44 2 -11 41 -23 52 -40 38
-12 -10 -16 -10 -16 -1 0 6 -6 10 -12 7 -7 -2 -26 2 -42 10 -26 14 -30 13 -38
-1 -5 -9 -14 -13 -20 -10 -6 4 -14 0 -19 -7 -8 -12 -11 -12 -19 1 -9 13 -11
13 -19 1 -8 -13 -12 -13 -26 -1 -15 12 -19 12 -30 -4 -12 -16 -14 -16 -22 -1
-7 13 -15 14 -36 6 -18 -7 -28 -7 -33 0 -4 6 -11 6 -20 -2 -11 -9 -14 -8 -14
2 0 12 -2 12 -9 1 -7 -11 -12 -11 -28 -1 -25 15 -80 -6 -89 -35 -6 -17 -8 -16
-18 10 -12 27 -13 28 -24 9 -6 -11 -12 -14 -12 -8 0 11 -18 12 -72 4 -5 0 -8
-9 -8 -18 0 -15 -2 -16 -10 -3 -9 13 -10 13 -10 0 -1 -12 -5 -10 -18 5 -22 25
-41 29 -48 12 -3 -9 -20 -13 -49 -12 -29 2 -46 -2 -49 -11 -3 -8 -17 -14 -31
-14 -19 0 -28 -7 -36 -27 -8 -22 -12 -24 -19 -13 -6 8 -10 24 -10 35 -1 20 -1
20 -16 0 -14 -19 -15 -19 -21 4 l-6 23 -22 -28 -22 -28 5 32 c4 31 -9 44 -23
22 -4 -6 -12 -5 -21 4 -8 9 -21 13 -29 10 -8 -4 -15 -2 -15 3 0 19 -42 54 -53
45 -7 -5 -21 -8 -32 -5 -50 10 -97 3 -112 -16 -9 -13 -14 -14 -24 -3 -21 20
-33 14 -47 -20 -34 -85 -58 -114 -78 -97 -8 7 -15 0 -24 -23 l-13 -33 -6 30
-7 30 -12 -33 c-6 -19 -16 -31 -22 -27 -5 3 -13 -1 -16 -10 -5 -12 -9 -13 -20
-4 -8 6 -14 18 -14 25 0 8 -4 14 -9 14 -5 0 -14 15 -21 33 -7 17 -14 26 -17
20 -7 -20 -30 -15 -47 9 l-16 22 -1 -24 c-1 -23 -2 -23 -15 8 -16 36 -22 39
-39 15 -11 -15 -15 -14 -39 10 -15 15 -35 27 -44 27 -10 0 -23 5 -29 11 -8 8
-13 8 -17 0 -8 -13 -52 -15 -60 -3 -9 15 -46 6 -61 -14 -13 -17 -14 -17 -15
-2 0 29 -31 38 -54 17 -20 -19 -20 -19 -28 1 -7 20 -9 20 -30 6 -17 -12 -25
-13 -36 -4 -10 9 -15 9 -21 0 -5 -8 -37 -12 -89 -13 -52 -1 -85 -5 -92 -14 -6
-8 -26 -11 -53 -8 -23 3 -64 5 -92 6 -50 2 -50 2 -47 -28 2 -17 -1 -25 -5 -19
-14 19 -77 46 -81 34 -7 -19 -22 -10 -23 13 -1 21 -1 21 -9 -3 -4 -14 -8 -19
-9 -11 -1 8 -7 11 -18 6 -27 -11 -171 -6 -201 7 -43 18 -51 17 -57 -2 -4 -13
-16 -17 -45 -17 -39 0 -40 0 -41 36 l0 36 -17 -45 c-14 -37 -23 -45 -50 -51
-17 -3 -32 -3 -32 1 0 14 -78 42 -99 35 -13 -4 -21 -2 -21 5 0 6 -4 8 -10 5
-5 -3 -10 -1 -10 5 0 7 -8 9 -20 5 -14 -4 -28 2 -46 20 -19 19 -34 25 -51 22
-15 -3 -27 2 -34 12 -7 12 -12 13 -15 4 -10 -24 -42 -14 -49 15 -7 27 -7 27
-16 5 -11 -31 -39 -30 -39 1 0 28 -26 54 -40 40 -6 -6 -11 -22 -12 -37 -2 -21
-8 -27 -25 -27 -13 0 -23 4 -23 9 0 16 -33 22 -42 7 -5 -10 -26 -14 -67 -14
l-59 0 -7 34 c-5 32 -25 49 -25 22 0 -9 -3 -9 -12 0 -8 8 -18 5 -40 -13 -36
-31 -52 -31 -72 -3 -15 21 -16 21 -16 3 -1 -19 -1 -19 -14 -2 -7 9 -19 17 -25
17 -7 0 -11 -8 -9 -17 2 -15 -6 -19 -49 -21 -43 -3 -56 1 -75 20 -45 45 -90
70 -118 64 -15 -3 -31 -1 -37 5 -5 5 -25 11 -45 13 -19 2 -39 5 -44 8 -5 2
-25 5 -44 7 -19 1 -64 11 -100 21 -73 21 -145 38 -208 49 -34 6 -45 5 -52 -8
-8 -14 -9 -14 -10 2 0 20 -16 23 -23 3 -8 -20 -117 -10 -125 12 -2 7 -13 10
-27 6 -18 -4 -24 -1 -29 19 -9 36 -34 42 -46 12 -5 -14 -16 -25 -23 -25 -20 0
-133 46 -172 70 -27 16 -39 19 -54 11 -30 -16 -81 -13 -128 8 -22 11 -67 25
-100 31 -32 7 -62 15 -68 18 -5 4 -16 7 -24 9 -41 6 -60 15 -65 31 -5 14 -73
93 -79 91 -1 0 -23 -6 -50 -13z m748 -1276 c-3 -5 -1 -10 4 -10 6 0 11 6 12
13 0 9 2 9 5 0 3 -7 13 -10 22 -7 14 5 14 3 -1 -6 -10 -7 -27 -10 -38 -7 -10
3 -19 0 -19 -6 0 -6 -3 -7 -6 -4 -4 4 -1 13 6 22 14 17 25 20 15 5z m-45 -32
c0 -5 -4 -8 -10 -8 -5 0 -10 10 -10 23 0 18 2 19 10 7 5 -8 10 -18 10 -22z
m67 -4 c-3 -3 -12 -4 -19 -1 -8 3 -5 6 6 6 11 1 17 -2 13 -5z m446 -11 c-7 -2
-19 -2 -25 0 -7 3 -2 5 12 5 14 0 19 -2 13 -5z m-6708 -103 c3 -5 1 -10 -4
-10 -6 0 -11 5 -11 10 0 6 2 10 4 10 3 0 8 -4 11 -10z m8030 -60 c14 -6 3 -9
-40 -9 -42 -1 -56 2 -45 9 18 12 58 12 85 0z m-2128 -16 c-3 -3 -12 -4 -19 -1
-8 3 -5 6 6 6 11 1 17 -2 13 -5z m-5234 -31 c-7 -2 -19 -2 -25 0 -7 3 -2 5 12
5 14 0 19 -2 13 -5z m204 1 c-3 -3 -12 -4 -19 -1 -8 3 -5 6 6 6 11 1 17 -2 13
-5z m5066 -25 c-3 -11 -6 -19 -8 -19 -1 0 -10 8 -19 19 -16 18 -16 19 7 19 19
0 23 -5 20 -19z m-4409 -114 c3 -9 0 -15 -8 -15 -7 0 -13 7 -13 15 0 8 4 15 8
15 4 0 9 -7 13 -15z m34 -3 c6 -18 -15 -14 -22 4 -4 10 -1 14 6 12 6 -2 14
-10 16 -16z m7089 -14 c-3 -8 -6 -5 -6 6 -1 11 2 17 5 13 3 -3 4 -12 1 -19z
m-7047 -18 c0 -5 -8 -10 -17 -10 -15 0 -16 2 -3 10 19 12 20 12 20 0z m-63
-62 c-3 -7 -5 -2 -5 12 0 14 2 19 5 13 2 -7 2 -19 0 -25z m7360 -20 c-3 -8 -6
-5 -6 6 -1 11 2 17 5 13 3 -3 4 -12 1 -19z m-2047 2 c0 -5 -7 -10 -15 -10 -8
0 -15 5 -15 10 0 6 7 10 15 10 8 0 15 -4 15 -10z m1900 -16 c0 -14 -4 -23 -9
-20 -5 3 -7 15 -4 26 7 28 13 25 13 -6z m-3240 -24 c0 -5 -5 -10 -11 -10 -5 0
-7 5 -4 10 3 6 8 10 11 10 2 0 4 -4 4 -10z m1410 -2 c0 -4 -4 -8 -9 -8 -6 0
-12 4 -15 8 -3 5 1 9 9 9 8 0 15 -4 15 -9z m2063 5 c-7 -2 -19 -2 -25 0 -7 3
-2 5 12 5 14 0 19 -2 13 -5z m-6905 -24 c-12 -8 -4 -13 15 -10 5 1 6 -3 2 -9
-3 -6 -11 -8 -16 -5 -5 4 -9 2 -9 -2 0 -5 -9 -9 -20 -9 -13 0 -19 5 -16 13 3
7 1 13 -4 13 -6 0 -10 -5 -10 -12 0 -6 -2 -9 -5 -6 -9 8 6 38 16 32 5 -3 9 -1
9 4 0 5 12 7 26 4 19 -3 22 -7 12 -13z m-508 -9 c0 -5 -4 -10 -10 -10 -5 0
-10 5 -10 10 0 6 5 10 10 10 6 0 10 -4 10 -10z m3704 2 c3 -5 -1 -9 -9 -9 -8
0 -12 4 -9 9 3 4 7 8 9 8 2 0 6 -4 9 -8z m373 -28 c-3 -3 -12 -4 -19 -1 -8 3
-5 6 6 6 11 1 17 -2 13 -5z m3383 -4 c0 -5 -4 -10 -10 -10 -5 0 -10 5 -10 10
0 6 5 10 10 10 6 0 10 -4 10 -10z m-6803 -46 c-3 -3 -12 -4 -19 -1 -8 3 -5 6
6 6 11 1 17 -2 13 -5z m8367 -60 c8 -22 8 -22 -36 -16 -49 6 -52 32 -4 32 22
0 36 -6 40 -16z m103 5 c-12 -7 -27 -7 -45 0 -25 9 -24 9 18 10 36 0 41 -2 27
-10z m-5568 -21 c-5 -10 -11 -18 -12 -18 -2 0 -3 8 -3 18 0 10 6 19 13 19 8 0
9 -6 2 -19z m7 -40 c3 -4 -1 -5 -10 -4 -8 1 -18 5 -22 8 -3 4 1 5 10 4 8 -1
18 -5 22 -8z m11 -80 c-3 -7 -5 -2 -5 12 0 14 2 19 5 13 2 -7 2 -19 0 -25z
m-2413 -74 c7 -19 2 -18 -19 6 -16 17 -16 20 -3 15 9 -4 19 -13 22 -21z m1646
-60 c0 -2 -7 -4 -15 -4 -8 0 -15 4 -15 10 0 5 7 7 15 4 8 -4 15 -8 15 -10z
m-1027 -11 c-7 -2 -19 -2 -25 0 -7 3 -2 5 12 5 14 0 19 -2 13 -5z m-449 -24
c-6 -11 -24 -2 -24 11 0 5 7 7 15 4 8 -4 12 -10 9 -15z m79 14 c-7 -2 -19 -2
-25 0 -7 3 -2 5 12 5 14 0 19 -2 13 -5z m92 -13 c4 -6 -1 -7 -11 -3 -11 4 -15
2 -11 -4 4 -6 0 -14 -9 -17 -21 -8 -24 -8 -24 5 0 5 4 8 9 5 5 -3 11 1 15 9 6
17 22 20 31 5z m55 0 c-11 -7 2 -10 45 -11 l60 -2 -50 -6 c-27 -4 -55 -3 -62
2 -7 5 -17 6 -23 2 -5 -3 -10 -2 -10 4 0 5 8 12 18 14 30 8 37 7 22 -3z m1145
0 c3 -6 -1 -7 -9 -4 -18 7 -21 14 -7 14 6 0 13 -4 16 -10z m8039 -9 c4 -5 -3
-7 -14 -4 -23 6 -26 13 -6 13 8 0 17 -4 20 -9z m-9059 -11 c3 -5 1 -10 -4 -10
-6 0 -11 5 -11 10 0 6 2 10 4 10 3 0 8 -4 11 -10z m108 -7 c-7 -2 -19 -2 -25
0 -7 3 -2 5 12 5 14 0 19 -2 13 -5z m252 -11 c-3 -3 -11 0 -18 7 -9 10 -8 11
6 5 10 -3 15 -9 12 -12z m665 -18 c0 -2 -9 0 -20 6 -11 6 -20 13 -20 16 0 2 9
0 20 -6 11 -6 20 -13 20 -16z m6950 -14 c0 -5 -13 -10 -30 -10 -16 0 -30 5
-30 10 0 6 14 10 30 10 17 0 30 -4 30 -10z"/>
<path d="M173 3863 c-38 -4 -50 -12 -108 -76 l-65 -71 0 -1288 c0 -1016 3
-1288 13 -1288 8 0 8 -3 -2 -9 -11 -7 -7 -10 14 -13 16 -2 30 -9 33 -15 2 -9
-5 -11 -27 -7 l-30 6 -1 -551 0 -551 859 0 c680 0 860 2 864 12 4 10 6 10 6 1
1 -10 60 -13 262 -13 205 0 259 3 253 12 -6 10 -5 10 8 0 12 -9 251 -12 1138
-12 1094 0 1122 1 1106 19 -13 15 -14 20 -4 24 17 6 48 -16 48 -34 0 -11 2
-11 11 1 8 11 12 12 16 3 4 -10 1360 -13 6734 -13 l6729 0 0 625 c0 595 -1
625 -18 634 -14 7 -27 5 -48 -8 -24 -14 -74 -28 -164 -45 -8 -2 -23 -6 -33
-11 -9 -4 -57 -4 -105 1 -114 10 -206 6 -248 -12 -18 -8 -48 -14 -67 -14 -18
0 -38 -5 -44 -11 -7 -7 -48 -10 -115 -8 -193 5 -293 4 -353 -3 -33 -5 -96 -10
-139 -13 -50 -3 -86 -11 -96 -20 -9 -8 -24 -15 -32 -15 -9 0 -40 -11 -70 -25
-29 -14 -62 -25 -73 -25 -19 0 -105 -74 -105 -90 0 -5 -12 -22 -26 -39 -17
-20 -24 -39 -21 -51 3 -14 -1 -24 -15 -31 -13 -7 -18 -17 -15 -31 18 -68 -67
-131 -160 -119 -55 8 -93 -1 -106 -25 -4 -8 -16 -14 -26 -14 -10 0 -24 -7 -31
-15 -7 -8 -22 -15 -35 -15 -29 0 -84 -27 -118 -58 -22 -21 -39 -26 -87 -29
-33 -1 -60 1 -60 5 0 4 -17 16 -37 27 -21 11 -60 35 -86 53 -26 18 -61 35 -78
39 -16 3 -32 10 -35 14 -3 5 -13 9 -22 9 -9 0 -26 17 -37 37 -11 21 -36 48
-55 60 -39 25 -45 30 -78 67 -13 14 -43 31 -65 36 -23 6 -57 18 -75 26 -43 20
-128 30 -144 16 -7 -5 -30 -13 -50 -17 l-37 -7 5 53 c11 115 15 137 29 143 19
7 20 124 2 147 -17 22 -43 29 -56 16 -8 -8 -11 -8 -11 2 0 7 -9 11 -22 9 -20
-3 -23 -10 -26 -53 -1 -27 -3 -55 -4 -62 -2 -14 -26 -25 -38 -18 -10 6 -17
-26 -25 -115 -11 -119 -12 -121 -53 -120 -21 1 -62 -6 -92 -15 -31 -9 -66 -13
-80 -9 -40 12 -252 11 -290 0 -19 -6 -50 -18 -67 -28 -18 -10 -33 -14 -33 -9
0 5 -30 9 -67 9 -263 3 -287 6 -331 35 -24 16 -55 27 -75 27 -18 0 -38 5 -43
10 -11 11 -37 18 -88 26 -48 7 -91 37 -88 61 2 12 -2 24 -8 28 -6 4 -10 3 -9
-2 7 -38 -37 -45 -56 -8 -5 11 -17 19 -26 17 -17 -3 -47 35 -52 65 -4 27 -22
31 -25 5 -4 -24 -41 -50 -51 -35 -3 5 -33 22 -66 37 -33 16 -67 35 -75 42 -8
7 -53 29 -100 49 -46 20 -87 40 -90 45 -7 11 -119 64 -137 65 -6 0 -15 4 -19
8 -4 4 -17 7 -28 7 -12 0 -37 10 -56 22 -110 68 -155 86 -251 97 -53 6 -109
18 -125 26 -16 8 -36 15 -45 15 -9 0 -22 7 -29 15 -7 8 -20 15 -29 15 -9 0
-27 9 -41 20 -14 11 -29 20 -33 20 -5 0 -36 20 -68 45 -76 58 -124 77 -196 77
-59 1 -176 -14 -247 -31 -21 -5 -44 -7 -51 -5 -7 3 -30 1 -51 -5 -55 -15 -629
-13 -772 2 -39 5 -193 -17 -242 -33 -19 -6 -47 -18 -63 -26 -15 -9 -39 -18
-54 -20 -15 -3 -31 -8 -37 -12 -6 -3 -22 -8 -36 -9 -14 -2 -53 -12 -88 -24
-34 -11 -72 -20 -85 -19 -12 1 -24 1 -27 1 -3 -1 -31 -4 -63 -6 -32 -2 -65
-10 -74 -17 -9 -7 -18 -12 -20 -10 -2 1 -17 -5 -33 -13 -16 -8 -32 -15 -35
-14 -16 2 -95 -45 -125 -76 -47 -48 -114 -79 -175 -81 -49 -1 -100 -11 -120
-23 -5 -3 -14 -6 -20 -6 -18 -1 -90 -40 -106 -57 -9 -10 -18 -16 -21 -13 -2 3
-30 -19 -61 -49 -37 -36 -67 -56 -91 -60 -20 -4 -36 -11 -36 -16 0 -6 -7 -10
-15 -10 -9 0 -28 -9 -43 -20 -24 -18 -38 -20 -112 -16 -127 8 -189 16 -250 36
-72 24 -259 22 -305 -3 -36 -19 -165 -35 -165 -19 0 5 -11 13 -25 16 -14 4
-25 10 -25 15 0 15 -126 25 -158 13 -59 -22 -68 -25 -97 -29 -16 -2 -48 -5
-70 -7 -21 -2 -41 -9 -43 -15 -2 -6 -10 -11 -17 -11 -7 0 -15 -5 -17 -11 -4
-13 -113 -15 -149 -3 -24 8 -31 9 -56 12 -7 1 -13 8 -13 15 0 8 -16 22 -35 32
-19 11 -32 21 -29 24 7 7 -89 42 -103 36 -7 -2 -15 0 -18 5 -4 6 -33 10 -66
10 -44 0 -61 4 -65 15 -4 8 -10 12 -15 9 -5 -3 -9 0 -9 7 0 8 -4 8 -15 -1 -13
-11 -21 -10 -43 7 -15 11 -48 24 -72 28 -25 4 -48 12 -52 19 -5 8 -10 8 -19
-1 -9 -9 -19 -9 -43 1 -17 7 -53 16 -80 20 -33 5 -56 16 -73 34 -14 15 -29 26
-34 24 -5 -1 -9 2 -9 8 0 5 -6 10 -14 10 -8 0 -20 13 -28 30 -14 32 -28 40
-28 15 0 -13 -4 -14 -22 -3 -13 7 -27 13 -33 13 -5 1 -17 4 -25 8 -8 3 -46 15
-85 27 -79 23 -150 54 -160 70 -3 5 -13 10 -20 10 -19 0 -55 31 -55 47 0 7 -9
13 -19 13 -10 0 -21 7 -25 15 -3 8 -14 15 -25 15 -11 0 -23 5 -26 10 -3 6 -26
10 -51 10 -24 0 -44 5 -44 10 0 10 -119 69 -151 75 -9 2 -41 17 -72 35 -52 29
-75 37 -124 44 -12 2 -33 11 -47 20 -14 9 -32 16 -40 16 -9 0 -20 9 -26 21 -7
11 -18 18 -25 15 -8 -3 -17 3 -20 13 -4 15 -55 36 -68 29 -1 -1 -12 4 -25 11
-18 10 -23 19 -20 44 2 26 0 31 -16 29 -11 -2 -15 1 -11 7 3 6 1 11 -4 11 -6
0 -11 -11 -11 -24 0 -35 -25 -39 -81 -14 -38 18 -49 28 -49 45 0 13 -4 23 -9
23 -15 0 -22 -32 -10 -46 9 -11 0 -12 -45 -9 -42 2 -63 10 -90 32 -20 15 -36
31 -36 36 0 13 -27 7 -40 -8 -11 -13 -15 -13 -21 -3 -5 7 -14 13 -21 13 -40 2
-88 19 -88 31 0 8 -5 14 -11 14 -5 0 -8 4 -4 9 7 12 -21 21 -61 19 -17 0 -53
9 -80 22 -27 12 -60 28 -74 34 -14 6 -30 16 -37 21 -7 6 -19 15 -27 22 -8 7
-26 15 -39 18 -14 4 -28 13 -31 21 -3 8 -14 14 -23 14 -10 0 -29 7 -41 16 -12
8 -22 12 -22 9 0 -4 -7 1 -16 9 -8 9 -23 16 -32 16 -9 0 -26 7 -36 15 -11 8
-31 15 -45 15 -14 0 -37 9 -51 20 -14 11 -34 20 -45 20 -21 0 -58 19 -40 20 6
0 -6 8 -26 18 -20 9 -34 23 -32 30 3 7 -10 19 -30 27 -20 8 -38 19 -41 24 -3
4 -17 8 -30 8 -14 0 -40 9 -58 20 -18 10 -55 27 -83 37 -27 11 -54 25 -58 33
-4 7 -14 13 -22 13 -8 0 -23 9 -34 21 -11 12 -24 18 -30 15 -10 -7 -16 -5 -77
27 -17 9 -33 14 -36 12 -3 -3 -17 6 -32 20 -15 14 -34 25 -42 25 -7 0 -14 4
-14 8 0 10 -45 32 -66 32 -8 0 -31 11 -52 23 -20 13 -50 27 -67 31 -16 4 -37
13 -45 20 -8 7 -49 20 -90 31 -41 10 -79 21 -85 25 -5 5 -30 14 -55 21 -25 7
-47 16 -50 19 -12 14 -61 40 -75 40 -8 0 -15 5 -15 11 0 6 -9 8 -21 4 -13 -5
-19 -3 -15 3 7 12 -21 25 -35 16 -15 -9 -67 6 -85 24 -12 12 -20 13 -33 5 -14
-9 -20 -7 -29 8 -8 13 -20 18 -37 15 -13 -2 -25 0 -27 5 -2 5 -40 19 -86 30
-46 11 -99 29 -119 40 -20 11 -47 19 -60 16 -13 -2 -23 -1 -23 3 0 4 -15 11
-32 15 -18 4 -40 10 -48 12 -8 3 -31 6 -51 8 -20 1 -45 8 -57 14 -11 6 -29 11
-38 11 -10 0 -25 6 -33 14 -9 8 -34 17 -56 20 -44 6 -123 33 -171 59 -17 9
-34 13 -37 10 -4 -3 -12 -1 -19 5 -7 5 -47 20 -88 32 -41 12 -94 31 -118 42
-24 11 -54 18 -67 15 -14 -2 -30 2 -37 10 -6 8 -17 12 -24 9 -8 -3 -29 1 -48
9 -20 8 -46 15 -59 15 -14 0 -36 9 -51 21 -15 11 -54 27 -88 35 -34 8 -70 21
-78 29 -9 8 -25 15 -36 15 -11 0 -27 9 -37 20 -10 12 -29 20 -47 20 -28 0 -35
8 -31 38 2 10 -2 10 -17 1 -16 -10 -26 -9 -55 4 -19 9 -38 17 -41 17 -4 0 -23
10 -44 23 -20 13 -44 22 -52 22 -8 -1 -24 3 -35 9 -11 5 -30 11 -43 12 -12 2
-38 12 -56 23 -18 12 -42 21 -52 21 -11 0 -30 10 -44 23 -14 13 -30 22 -37 20
-6 -2 -17 2 -24 9 -17 16 -78 38 -106 38 -11 0 -22 3 -26 6 -3 4 -25 8 -49 9
-24 1 -54 5 -68 7 -14 3 -44 3 -67 1z m-103 -1413 c0 -5 -2 -10 -4 -10 -3 0
-8 5 -11 10 -3 6 -1 10 4 10 6 0 11 -4 11 -10z m640 -16 c0 -8 -4 -12 -10 -9
-5 3 -10 13 -10 21 0 8 5 12 10 9 6 -3 10 -13 10 -21z m100 -54 c0 -5 -4 -10
-10 -10 -5 0 -10 5 -10 10 0 6 5 10 10 10 6 0 10 -4 10 -10z m35 -20 c3 -5 2
-10 -4 -10 -5 0 -13 5 -16 10 -3 6 -2 10 4 10 5 0 13 -4 16 -10z m-763 -32
c-6 -6 -12 -6 -17 3 -5 8 -4 10 3 5 7 -4 12 0 13 11 0 12 2 13 6 5 3 -8 1 -18
-5 -24z m92 16 c14 -14 22 -34 13 -34 -2 0 -13 11 -25 25 -24 27 -13 35 12 9z
m64 -20 c-10 -10 -28 6 -28 24 0 15 1 15 17 -1 9 -9 14 -19 11 -23z m520 -35
c-3 -8 -7 -3 -11 10 -4 17 -3 21 5 13 5 -5 8 -16 6 -23z m76 10 c-3 -5 -10 -7
-15 -3 -5 3 -7 10 -3 15 3 5 10 7 15 3 5 -3 7 -10 3 -15z m-44 -50 c0 -6 -4
-7 -10 -4 -5 3 -10 11 -10 16 0 6 5 7 10 4 6 -3 10 -11 10 -16z m-650 -33 c0
-5 -7 -1 -15 10 -8 10 -14 24 -14 29 0 6 6 1 14 -9 8 -11 15 -24 15 -30z
m1055 -5 c3 -5 1 -12 -5 -16 -5 -3 -10 1 -10 9 0 18 6 21 15 7z m-915 -22 c0
-5 -4 -9 -10 -9 -5 0 -10 7 -10 16 0 8 5 12 10 9 6 -3 10 -10 10 -16z m190 12
c0 -18 -18 -21 -30 -6 -10 13 -9 15 9 15 11 0 21 -4 21 -9z m-420 -23 c0 -19
-2 -20 -10 -8 -13 19 -13 30 0 30 6 0 10 -10 10 -22z m108 -2 c3 -13 -1 -17
-14 -14 -11 2 -20 11 -22 22 -3 13 1 17 14 14 11 -2 20 -11 22 -22z m262 -17
c0 -5 -7 -9 -15 -9 -8 0 -15 7 -15 15 0 9 6 12 15 9 8 -4 15 -10 15 -15z m73
-3 c9 -7 17 -19 17 -26 0 -9 -5 -8 -18 3 -10 10 -22 14 -25 10 -4 -3 -7 1 -7
10 0 20 9 21 33 3z m-133 -12 c0 -8 -4 -12 -10 -9 -5 3 -10 10 -10 16 0 5 5 9
10 9 6 0 10 -7 10 -16z m-169 -42 c7 -17 6 -29 -1 -36 -7 -7 -10 -4 -10 8 0
13 -5 16 -16 12 -14 -5 -15 -4 -5 8 8 10 9 16 1 21 -6 3 -8 11 -4 16 8 14 24
1 35 -29z m1379 -38 c0 -2 -9 0 -20 6 -11 6 -20 13 -20 16 0 2 9 0 20 -6 11
-6 20 -13 20 -16z m-1275 -24 c3 -5 1 -10 -4 -10 -6 0 -11 5 -11 10 0 6 2 10
4 10 3 0 8 -4 11 -10z m1510 -58 c-3 -3 -11 0 -18 7 -9 10 -8 11 6 5 10 -3 15
-9 12 -12z m-383 -27 c-5 -18 -11 -25 -16 -17 -4 6 -2 21 4 33 15 28 21 20 12
-16z m-22 15 c0 -5 -4 -10 -10 -10 -5 0 -10 5 -10 10 0 6 5 10 10 10 6 0 10
-4 10 -10z m-955 -50 c3 -5 2 -10 -4 -10 -5 0 -13 5 -16 10 -3 6 -2 10 4 10 5
0 13 -4 16 -10z m297 -2 c-15 -15 -52 -21 -52 -9 0 5 12 12 28 14 15 2 29 5
32 6 2 0 -1 -4 -8 -11z m78 2 c13 -8 13 -10 -2 -10 -9 0 -20 5 -23 10 -8 13 5
13 25 0z m521 -3 c9 -7 16 -19 16 -27 0 -8 4 -23 8 -32 4 -11 3 -18 -4 -18 -7
0 -14 8 -17 18 -3 9 -11 29 -19 45 -15 29 -10 34 16 14z m-1201 -31 c0 -6 -5
-5 -12 2 -17 17 -33 15 -18 -3 8 -9 9 -15 2 -15 -16 0 -23 16 -16 34 5 12 9
13 25 3 10 -6 19 -16 19 -21z m883 15 c3 -14 1 -18 -9 -14 -8 3 -14 11 -14 19
0 21 17 17 23 -5z m-550 -17 c-4 -12 -8 -13 -14 -3 -9 15 -2 32 11 24 5 -3 6
-13 3 -21z m397 16 c8 -5 11 -12 7 -16 -4 -4 -15 0 -24 9 -18 18 -8 23 17 7z
m-14 -37 c-7 -7 -26 7 -26 19 0 6 6 6 15 -2 9 -7 13 -15 11 -17z m-441 -13 c3
-5 2 -10 -4 -10 -5 0 -13 5 -16 10 -3 6 -2 10 4 10 5 0 13 -4 16 -10z m150 -8
c-3 -3 -11 0 -18 7 -9 10 -8 11 6 5 10 -3 15 -9 12 -12z m93 -7 c-3 -3 -9 2
-12 12 -6 14 -5 15 5 6 7 -7 10 -15 7 -18z m1097 16 c3 -5 1 -12 -5 -16 -5 -3
-10 1 -10 9 0 18 6 21 15 7z m150 -1 c3 -5 1 -10 -4 -10 -6 0 -11 5 -11 10 0
6 2 10 4 10 3 0 8 -4 11 -10z m-1055 -10 c0 -5 -7 -10 -15 -10 -8 0 -15 5 -15
10 0 6 7 10 15 10 8 0 15 -4 15 -10z m470 -11 c0 -5 -7 -9 -15 -9 -15 0 -20
12 -9 23 8 8 24 -1 24 -14z m-580 -19 c0 -5 -2 -10 -4 -10 -3 0 -8 5 -11 10
-3 6 -1 10 4 10 6 0 11 -4 11 -10z m520 -10 c0 -5 -4 -10 -10 -10 -5 0 -10 5
-10 10 0 6 5 10 10 10 6 0 10 -4 10 -10z m-850 -4 c0 -2 -9 -6 -20 -9 -11 -3
-20 -1 -20 4 0 5 9 9 20 9 11 0 20 -2 20 -4z m500 -6 c0 -5 -8 -10 -17 -10
-15 0 -16 2 -3 10 19 12 20 12 20 0z m-295 -10 c3 -5 1 -10 -4 -10 -6 0 -11 5
-11 10 0 6 2 10 4 10 3 0 8 -4 11 -10z m515 0 c0 -5 -2 -10 -4 -10 -3 0 -8 5
-11 10 -3 6 -1 10 4 10 6 0 11 -4 11 -10z m-890 -37 c0 -13 -3 -13 -15 -3 -8
7 -12 16 -9 21 8 13 24 1 24 -18z m690 17 c0 -5 -8 -10 -17 -10 -15 0 -16 2
-3 10 19 12 20 12 20 0z m174 -16 c15 -6 15 -8 -1 -19 -20 -15 -33 -11 -33 11
0 15 9 17 34 8z m-394 -24 c0 -5 -2 -10 -4 -10 -3 0 -8 5 -11 10 -3 6 -1 10 4
10 6 0 11 -4 11 -10z m-190 -10 c0 -5 -2 -10 -4 -10 -3 0 -8 5 -11 10 -3 6 -1
10 4 10 6 0 11 -4 11 -10z m534 -5 c-7 -16 -39 -20 -48 -6 -7 10 9 19 36 20
12 1 15 -4 12 -14z m-390 -58 c-16 -9 -65 11 -71 29 -2 7 6 10 22 7 16 -4 25
-1 25 7 0 7 9 2 19 -11 16 -20 17 -25 5 -32z m634 35 c8 -7 11 -16 8 -19 -4
-4 -17 3 -29 16 -24 24 -4 27 21 3z m237 8 c3 -5 -1 -10 -9 -10 -9 0 -16 5
-16 10 0 6 4 10 9 10 6 0 13 -4 16 -10z m415 0 c0 -5 -2 -10 -4 -10 -3 0 -8 5
-11 10 -3 6 -1 10 4 10 6 0 11 -4 11 -10z m160 -26 c0 -8 -5 -12 -10 -9 -6 4
-8 11 -5 16 9 14 15 11 15 -7z m114 0 c6 -16 -10 -28 -24 -19 -15 9 -12 32 5
32 8 0 16 -6 19 -13z m296 -20 c0 -35 -15 -30 -17 6 -1 18 2 28 7 25 6 -4 10
-17 10 -31z m-560 5 c0 -5 -7 -9 -15 -9 -8 0 -15 7 -15 15 0 9 6 12 15 9 8 -4
15 -10 15 -15z m132 -29 c2 -15 11 -28 23 -32 19 -6 19 -6 -2 -7 -13 -1 -27 8
-34 20 -8 15 -13 18 -19 10 -5 -10 -9 -9 -13 3 -4 9 -3 15 1 15 4 -1 14 -1 22
0 11 1 11 4 2 13 -7 7 -12 17 -12 22 0 21 29 -20 32 -44z m-1372 18 c0 -6 -6
-5 -15 2 -8 7 -15 14 -15 16 0 2 7 1 15 -2 8 -4 15 -11 15 -16z m557 -4 c-3
-3 -12 -4 -19 -1 -8 3 -5 6 6 6 11 1 17 -2 13 -5z m1387 -19 c3 -8 1 -15 -4
-15 -6 0 -10 4 -10 10 0 5 -8 7 -17 4 -15 -5 -16 -4 -3 5 20 14 27 14 34 -4z
m-1830 -7 c-2 -4 0 -9 6 -13 5 -3 10 -12 10 -18 0 -8 -3 -8 -9 1 -4 8 -12 14
-17 14 -5 0 -17 6 -27 13 -15 11 -14 12 12 11 16 -1 27 -4 25 -8z m641 -36
c-3 -8 -5 -28 -5 -45 l-1 -32 -14 25 c-11 19 -14 21 -15 8 0 -10 -5 -18 -10
-18 -12 0 -9 82 4 92 14 9 47 -15 41 -30z m1491 23 c3 -8 -1 -24 -9 -35 -14
-21 -15 -20 -15 14 0 36 14 48 24 21z m89 5 c3 -5 2 -10 -4 -10 -5 0 -13 5
-16 10 -3 6 -2 10 4 10 5 0 13 -4 16 -10z m-845 -24 c0 -3 -4 -8 -10 -11 -5
-3 -10 -1 -10 4 0 6 5 11 10 11 6 0 10 -2 10 -4z m-1335 -16 c3 -5 1 -10 -4
-10 -6 0 -11 5 -11 10 0 6 2 10 4 10 3 0 8 -4 11 -10z m1385 0 c0 -13 -11 -13
-30 0 -12 8 -11 10 8 10 12 0 22 -4 22 -10z m1490 -22 c0 -27 -16 -29 -28 -3
-10 21 -9 23 9 22 11 -1 19 -9 19 -19z m-2915 2 c3 -5 1 -10 -4 -10 -6 0 -11
5 -11 10 0 6 2 10 4 10 3 0 8 -4 11 -10z m552 -14 c-2 -6 -10 -11 -18 -11 -8
0 -17 -9 -20 -20 -6 -19 -7 -19 -14 -2 -5 12 -2 22 10 31 21 15 47 17 42 2z
m133 4 c0 -5 -2 -10 -4 -10 -3 0 -8 5 -11 10 -3 6 -1 10 4 10 6 0 11 -4 11
-10z m1934 -40 c-6 -6 -10 -2 -11 12 -2 16 1 18 10 9 7 -7 8 -14 1 -21z m-739
10 c3 -5 1 -10 -4 -10 -6 0 -11 5 -11 10 0 6 2 10 4 10 3 0 8 -4 11 -10z
m-1905 -15 c11 -13 10 -14 -4 -9 -9 3 -16 10 -16 15 0 13 6 11 20 -6z m945 -5
c10 -11 14 -20 8 -20 -5 0 -18 9 -28 20 -10 11 -14 20 -8 20 5 0 18 -9 28 -20z
m1075 10 c0 -5 -7 -7 -15 -4 -8 4 -15 8 -15 10 0 2 7 4 15 4 8 0 15 -4 15 -10z
m434 -11 c-3 -5 -10 -7 -15 -3 -5 3 -7 10 -3 15 3 5 10 7 15 3 5 -3 7 -10 3
-15z m-1297 -19 c-1 -12 -8 -20 -19 -20 -11 0 -16 7 -15 20 1 12 8 20 19 20
11 0 16 -7 15 -20z m763 10 c0 -5 -2 -10 -4 -10 -3 0 -8 5 -11 10 -3 6 -1 10
4 10 6 0 11 -4 11 -10z m1107 -16 c-3 -3 -12 -4 -19 -1 -8 3 -5 6 6 6 11 1 17
-2 13 -5z m-3022 -23 c-3 -6 -11 -11 -17 -11 -6 0 -6 6 2 15 14 17 26 13 15
-4z m1810 9 c3 -5 1 -10 -4 -10 -6 0 -11 5 -11 10 0 6 2 10 4 10 3 0 8 -4 11
-10z m41 -25 c9 -8 11 -15 6 -15 -5 0 -15 7 -22 15 -7 8 -9 15 -6 15 4 0 14
-7 22 -15z m-1876 -39 c0 -6 -7 -2 -15 8 -8 11 -15 25 -15 30 0 6 7 2 15 -8 8
-11 15 -25 15 -30z m106 33 c3 -6 0 -18 -9 -26 -13 -14 -15 -13 -14 11 2 27
11 34 23 15z m2476 -23 c9 -14 -7 -30 -21 -22 -6 4 -11 14 -11 22 0 8 -4 12
-10 9 -5 -3 -10 -1 -10 5 0 14 42 3 52 -14z m368 20 c0 -11 -19 -15 -25 -6 -3
5 1 10 9 10 9 0 16 -2 16 -4z m-1662 -31 c-2 -17 -7 -24 -16 -20 -8 3 -18 5
-23 5 -5 0 -9 5 -9 11 0 6 9 8 20 4 14 -5 20 -2 20 9 0 9 2 16 5 16 3 0 4 -11
3 -25z m37 15 c3 -5 1 -10 -4 -10 -6 0 -11 5 -11 10 0 6 2 10 4 10 3 0 8 -4
11 -10z m1815 0 c0 -5 -4 -10 -9 -10 -6 0 -13 5 -16 10 -3 6 1 10 9 10 9 0 16
-4 16 -10z m-3072 -50 c6 0 14 -4 17 -10 4 -6 -1 -7 -12 -3 -15 5 -16 3 -5 -8
17 -19 16 -60 -2 -53 -8 3 -17 12 -20 21 -5 11 -2 14 11 9 14 -5 13 -2 -3 11
-24 20 -36 48 -26 58 4 3 12 -1 18 -9 6 -9 16 -16 22 -16z m2896 -8 c7 -12 15
-19 19 -16 4 4 7 2 7 -4 0 -7 -5 -12 -10 -12 -7 0 -7 -6 0 -19 5 -11 7 -27 4
-35 -9 -24 -39 -19 -52 9 -13 28 -5 32 31 14 23 -10 18 -5 -45 46 -26 21 -22
41 8 40 16 0 30 -8 38 -23z m-1549 -2 c3 -5 2 -10 -4 -10 -5 0 -13 5 -16 10
-3 6 -2 10 4 10 5 0 13 -4 16 -10z m1195 -10 c8 -5 11 -12 7 -16 -4 -4 -15 0
-24 9 -18 18 -8 23 17 7z m-630 -95 c17 -27 30 -54 30 -60 0 -9 -54 75 -90
140 -23 41 31 -31 60 -80z m863 55 c-7 -26 -19 -34 -29 -19 -4 7 -3 9 3 6 6
-4 13 2 16 13 3 11 7 20 10 20 3 0 3 -9 0 -20z m63 -25 c4 -11 16 -30 27 -43
16 -17 23 -19 30 -10 6 9 7 8 3 -4 -3 -12 7 -30 30 -54 20 -19 34 -37 32 -39
-6 -7 -68 27 -63 35 7 12 -21 31 -52 35 -15 2 -29 4 -31 4 -1 1 2 10 8 22 9
17 8 25 -6 40 -10 11 -19 29 -21 39 -3 18 -1 19 17 8 11 -7 23 -22 26 -33z
m-101 -5 c3 -5 2 -10 -4 -10 -5 0 -13 5 -16 10 -3 6 -2 10 4 10 5 0 13 -4 16
-10z m245 6 c0 -11 -19 -15 -25 -6 -3 5 1 10 9 10 9 0 16 -2 16 -4z m-3800
-50 c0 -5 -7 -3 -15 4 -8 7 -12 17 -9 22 7 10 24 -9 24 -26z m3285 24 c3 -5 1
-10 -4 -10 -6 0 -11 5 -11 10 0 6 2 10 4 10 3 0 8 -4 11 -10z m2170 -28 c-3
-3 -11 0 -18 7 -9 10 -8 11 6 5 10 -3 15 -9 12 -12z m-1599 -50 c-6 -5 -36 23
-36 34 0 4 9 -1 20 -11 11 -10 18 -20 16 -23z m-2726 -14 c0 -18 -2 -20 -9 -8
-6 8 -7 18 -5 22 9 14 14 9 14 -14z m535 12 c3 -6 -1 -7 -9 -4 -18 7 -21 14
-7 14 6 0 13 -4 16 -10z m2025 -41 c0 -6 -4 -7 -10 -4 -5 3 -10 11 -10 16 0 6
5 7 10 4 6 -3 10 -11 10 -16z m4 -30 c-3 -5 -2 -9 3 -9 4 0 13 -11 19 -25 11
-23 10 -24 -8 -14 -10 6 -22 18 -25 27 -4 9 -14 22 -22 29 -13 9 -11 10 12 6
15 -3 24 -9 21 -14z m11021 -56 c4 -38 8 -84 8 -103 2 -35 2 -35 -37 -33 -22
2 -41 5 -44 7 -2 3 1 44 7 93 8 58 17 92 28 100 24 19 30 9 38 -64z m-11915
47 c6 -11 7 -20 3 -20 -5 0 -14 9 -21 20 -7 11 -8 20 -2 20 5 0 14 -9 20 -20z
m-2565 0 c3 -5 1 -10 -4 -10 -6 0 -11 5 -11 10 0 6 2 10 4 10 3 0 8 -4 11 -10z
m2605 -25 c0 -8 -2 -15 -4 -15 -2 0 -6 7 -10 15 -3 8 -1 15 4 15 6 0 10 -7 10
-15z m1006 -32 c16 -21 18 -37 4 -28 -13 8 -33 45 -24 45 4 0 13 -8 20 -17z
m-3851 -11 c-3 -3 -11 0 -18 7 -9 10 -8 11 6 5 10 -3 15 -9 12 -12z m3772 -48
c11 -35 19 -64 17 -64 -18 0 -34 17 -34 35 0 13 -4 27 -10 30 -5 3 -10 15 -10
27 0 14 -5 18 -15 14 -9 -3 -15 0 -15 8 0 7 10 14 23 14 20 0 27 -10 44 -64z
m-3727 46 c0 -5 -7 -7 -15 -4 -8 4 -15 8 -15 10 0 2 7 4 15 4 8 0 15 -4 15
-10z m5120 -21 c0 -6 -4 -7 -10 -4 -5 3 -10 11 -10 16 0 6 5 7 10 4 6 -3 10
-11 10 -16z m5760 1 c0 -5 -5 -10 -11 -10 -5 0 -7 5 -4 10 3 6 8 10 11 10 2 0
4 -4 4 -10z m-7830 -39 c-1 -13 -3 -13 -15 3 -19 26 -19 42 0 26 8 -7 15 -20
15 -29z m983 14 c-3 -9 -8 -14 -10 -11 -3 3 -2 9 2 15 9 16 15 13 8 -4z
m-3996 -34 c1 -29 0 -32 -12 -20 -23 25 -27 55 -7 55 12 0 17 -9 19 -35z
m5129 14 c11 -11 12 -15 3 -15 -10 0 -10 -3 -1 -12 17 -17 15 -33 -3 -18 -8 7
-15 19 -15 27 0 8 -4 11 -10 8 -11 -7 -14 8 -3 18 9 10 13 9 29 -8z m-4006 -5
c8 -5 11 -12 7 -16 -4 -4 -15 0 -24 9 -18 18 -8 23 17 7z m130 0 c13 -8 13
-10 -2 -10 -9 0 -20 5 -23 10 -8 13 5 13 25 0z m2507 -2 c4 -7 17 -18 27 -24
11 -6 21 -17 24 -25 2 -11 1 -11 -10 1 -7 9 -28 22 -45 29 -18 7 -33 17 -33
22 0 14 28 11 37 -3z m-944 -39 c5 -20 5 -20 -14 -3 -14 12 -19 13 -19 4 0 -7
-2 -11 -5 -9 -2 3 -2 15 2 27 6 26 27 15 36 -19z m-1653 1 c0 -5 -7 -7 -15 -4
-8 4 -15 8 -15 10 0 2 7 4 15 4 8 0 15 -4 15 -10z m2575 -19 c2 -11 0 -21 -6
-21 -5 0 -9 12 -9 27 0 30 9 27 15 -6z m-2478 -23 c-3 -8 -6 -5 -6 6 -1 11 2
17 5 13 3 -3 4 -12 1 -19z m1508 11 c11 -17 -1 -21 -15 -4 -8 9 -8 15 -2 15 6
0 14 -5 17 -11z m1005 1 c0 -5 -2 -10 -4 -10 -3 0 -8 5 -11 10 -3 6 -1 10 4
10 6 0 11 -4 11 -10z m6680 0 c0 -5 -2 -10 -4 -10 -3 0 -8 5 -11 10 -3 6 -1
10 4 10 6 0 11 -4 11 -10z m-7400 -4 c0 -11 -19 -15 -25 -6 -3 5 1 10 9 10 9
0 16 -2 16 -4z m-225 -16 c3 -5 1 -10 -5 -10 -7 0 -9 -8 -5 -20 4 -11 2 -20
-4 -20 -6 0 -11 3 -11 8 0 4 -3 17 -6 30 -5 16 -2 22 9 22 9 0 19 -4 22 -10z
m-51 -50 c10 -13 9 -13 -6 -1 -10 7 -18 21 -17 30 0 13 1 14 6 1 3 -8 11 -22
17 -30z m-2674 10 c0 -5 -7 -7 -15 -4 -8 4 -15 8 -15 10 0 2 7 4 15 4 8 0 15
-4 15 -10z m3793 -45 c10 -11 22 -30 27 -43 6 -13 14 -20 20 -17 5 3 21 -19
35 -50 16 -37 29 -54 36 -49 8 4 9 3 5 -5 -4 -6 -1 -14 7 -17 9 -3 12 -14 9
-29 -2 -14 -9 -22 -14 -19 -5 3 -7 13 -4 21 3 8 1 11 -4 8 -6 -3 -10 0 -10 8
0 8 -7 17 -15 21 -8 3 -15 16 -15 28 0 17 -2 20 -9 9 -8 -12 -12 -12 -26 2
-15 15 -15 17 -1 17 11 0 16 9 16 26 0 22 -3 24 -14 15 -11 -9 -16 -9 -21 -1
-4 7 -15 10 -25 7 -11 -3 -21 2 -24 10 -3 8 -1 11 4 8 6 -3 10 1 10 9 0 14
-11 20 -32 17 -4 0 -5 6 -2 13 3 9 13 12 22 9 12 -4 10 2 -8 23 -29 32 2 13
33 -21z m7188 18 c13 -16 12 -17 -3 -4 -10 7 -18 15 -18 17 0 8 8 3 21 -13z
m-9946 -23 c3 -5 1 -10 -4 -10 -6 0 -11 5 -11 10 0 6 2 10 4 10 3 0 8 -4 11
-10z m909 -32 c3 -15 1 -16 -15 -8 -10 6 -23 19 -29 29 -9 17 -7 18 15 7 13
-6 26 -19 29 -28z m624 22 c7 -11 10 -20 6 -20 -7 0 -34 27 -34 34 0 13 16 5
28 -14z m-2438 -6 c0 -8 -4 -12 -10 -9 -5 3 -10 10 -10 16 0 5 5 9 10 9 6 0
10 -7 10 -16z m1725 6 c3 -5 2 -10 -4 -10 -5 0 -13 5 -16 10 -3 6 -2 10 4 10
5 0 13 -4 16 -10z m-1677 -25 c-3 -3 -9 2 -12 12 -6 14 -5 15 5 6 7 -7 10 -15
7 -18z m1812 -20 c0 -5 -5 -3 -10 5 -5 8 -10 20 -10 25 0 6 5 3 10 -5 5 -8 10
-19 10 -25z m21 -12 c-9 -16 -10 -14 -11 12 0 21 3 26 11 18 8 -8 8 -16 0 -30z
m3264 9 c-3 -3 -11 0 -18 7 -9 10 -8 11 6 5 10 -3 15 -9 12 -12z m-5300 -12
c3 -5 1 -10 -4 -10 -6 0 -11 5 -11 10 0 6 2 10 4 10 3 0 8 -4 11 -10z m4058
-13 c4 3 7 1 7 -5 0 -20 -19 -13 -30 11 -10 20 -10 20 3 5 8 -10 17 -15 20
-11z m501 7 c3 -8 2 -12 -4 -9 -6 3 -10 10 -10 16 0 14 7 11 14 -7z m6412 -10
c-6 16 -4 17 10 5 11 -9 12 -15 5 -17 -9 -3 -8 -8 1 -20 11 -13 11 -15 -2 -7
-26 14 -50 38 -50 48 0 6 10 2 22 -9 21 -19 21 -19 14 0z m-9085 -26 l23 -33
-27 24 c-15 14 -27 28 -27 33 0 15 8 8 31 -24z m1059 12 c0 -5 -4 -10 -10 -10
-5 0 -10 5 -10 10 0 6 5 10 10 10 6 0 10 -4 10 -10z m-1655 -10 c3 -5 1 -10
-4 -10 -6 0 -11 5 -11 10 0 6 2 10 4 10 3 0 8 -4 11 -10z m2727 2 c-7 -5 -10
-17 -6 -28 5 -16 4 -16 -5 -4 -16 22 -13 40 7 40 12 0 14 -2 4 -8z m-32 -17
c0 -8 -4 -15 -10 -15 -5 0 -10 7 -10 15 0 8 5 15 10 15 6 0 10 -7 10 -15z
m7437 -10 c0 -11 -4 -12 -14 -4 -7 6 -13 13 -13 15 0 2 6 4 13 4 8 0 14 -7 14
-15z m-10132 -34 c3 -5 1 -12 -5 -16 -5 -3 -10 1 -10 9 0 18 6 21 15 7z m9509
-37 c5 -14 4 -15 -9 -4 -17 14 -19 20 -6 20 5 0 12 -7 15 -16z m-10659 -20
c-9 -9 -18 -14 -21 -11 -9 9 6 27 22 27 13 0 13 -2 -1 -16z m11665 6 c0 -5 -2
-10 -4 -10 -3 0 -8 5 -11 10 -3 6 -1 10 4 10 6 0 11 -4 11 -10z m-11735 -10
c3 -5 2 -10 -4 -10 -5 0 -13 5 -16 10 -3 6 -2 10 4 10 5 0 13 -4 16 -10z
m4095 -15 c7 -9 8 -15 2 -15 -5 0 -12 7 -16 15 -3 8 -4 15 -2 15 2 0 9 -7 16
-15z m7118 -20 c-3 -3 -9 2 -12 12 -6 14 -5 15 5 6 7 -7 10 -15 7 -18z
m-11088 -24 c0 -3 -11 -11 -25 -18 -21 -9 -25 -9 -25 5 0 15 -2 15 -10 2 -8
-13 -10 -13 -10 1 0 21 41 40 58 27 6 -6 12 -13 12 -17z m1005 -31 c3 -5 1
-10 -4 -10 -6 0 -11 5 -11 10 0 6 2 10 4 10 3 0 8 -4 11 -10z m3252 -12 c-1
-17 4 -24 21 -26 14 -2 22 -10 22 -23 0 -18 -1 -19 -24 -4 -28 19 -38 39 -30
60 9 22 14 18 11 -7z m-1357 -13 c-7 -9 -15 -13 -19 -10 -3 3 1 10 9 15 21 14
24 12 10 -5z m1200 -15 c0 -5 -2 -10 -4 -10 -3 0 -8 5 -11 10 -3 6 -1 10 4 10
6 0 11 -4 11 -10z m2016 -15 c10 -8 15 -14 9 -14 -5 0 -19 6 -29 14 -11 8 -15
15 -10 15 6 0 19 -7 30 -15z m-1986 -15 c0 -5 -4 -10 -9 -10 -6 0 -13 5 -16
10 -3 6 1 10 9 10 9 0 16 -4 16 -10z m-2994 -47 c-7 -7 -26 7 -26 19 0 6 6 6
15 -2 9 -7 13 -15 11 -17z m2909 -23 c-3 -5 -10 -10 -16 -10 -5 0 -9 5 -9 10
0 6 7 10 16 10 8 0 12 -4 9 -10z m-75 -20 c25 -19 18 -50 -12 -50 -15 0 -18 5
-13 20 5 15 3 18 -9 14 -9 -3 -13 -11 -10 -18 3 -6 -2 -2 -10 8 -9 11 -16 26
-16 33 0 17 44 13 70 -7z m-4135 0 c3 -6 -1 -7 -9 -4 -18 7 -21 14 -7 14 6 0
13 -4 16 -10z m4199 -26 c3 -8 2 -12 -4 -9 -6 3 -10 10 -10 16 0 14 7 11 14
-7z m56 2 c0 -2 3 -11 6 -20 4 -11 1 -16 -11 -16 -11 0 -15 5 -12 14 3 8 1 17
-6 20 -7 2 -4 5 6 5 9 1 17 -1 17 -3z m2090 -21 c0 -8 -2 -15 -4 -15 -2 0 -6
7 -10 15 -3 8 -1 15 4 15 6 0 10 -7 10 -15z m-2177 -30 c-3 -9 -8 -14 -10 -11
-3 3 -2 9 2 15 9 16 15 13 8 -4z m82 -15 c3 -5 1 -10 -4 -10 -6 0 -11 5 -11
10 0 6 2 10 4 10 3 0 8 -4 11 -10z m-4281 -15 c-4 -8 -10 -15 -15 -15 -4 0 -6
7 -3 15 4 8 10 15 15 15 4 0 6 -7 3 -15z m3341 -43 c-8 -8 -25 10 -25 26 0 13
2 13 14 -4 8 -10 13 -21 11 -22z m235 -5 c-1 -21 -1 -21 -15 -3 -8 10 -12 23
-9 28 9 14 24 -2 24 -25z m-128 -9 c-9 -9 -12 -7 -12 12 0 19 3 21 12 12 9 -9
9 -15 0 -24z m918 11 c0 -6 -4 -7 -10 -4 -5 3 -10 11 -10 16 0 6 5 7 10 4 6
-3 10 -11 10 -16z m-89 -16 c13 -15 12 -15 -8 -4 -24 12 -29 21 -14 21 5 0 15
-7 22 -17z m-810 -20 c-12 -20 -14 -14 -5 12 4 9 9 14 11 11 3 -2 0 -13 -6
-23z m702 -15 l6 -20 -20 20 c-23 25 -24 33 -5 26 8 -3 16 -15 19 -26z m172 4
c-3 -3 -11 0 -18 7 -9 10 -8 11 6 5 10 -3 15 -9 12 -12z m-2848 -54 c-3 -8 -6
-5 -6 6 -1 11 2 17 5 13 3 -3 4 -12 1 -19z m533 12 c0 -5 -7 -7 -15 -4 -8 4
-15 8 -15 10 0 2 7 4 15 4 8 0 15 -4 15 -10z"/>
<path d="M4144 3114 c4 -11 2 -15 -8 -11 -8 3 -17 -1 -20 -9 -9 -23 -8 -24 13
-24 12 0 21 9 25 25 5 21 11 24 31 19 15 -4 25 -2 25 5 0 6 -16 11 -36 11 -29
0 -35 -3 -30 -16z"/>
<path d="M10342 2770 c0 -14 2 -19 5 -12 2 6 2 18 0 25 -3 6 -5 1 -5 -13z"/>
<path d="M10310 2759 c0 -5 5 -7 10 -4 6 3 10 8 10 11 0 2 -4 4 -10 4 -5 0
-10 -5 -10 -11z"/>
<path d="M11633 2643 c37 -2 97 -2 135 0 37 2 6 3 -68 3 -74 0 -105 -1 -67 -3z"/>
<path d="M11853 2643 c9 -2 23 -2 30 0 6 3 -1 5 -18 5 -16 0 -22 -2 -12 -5z"/>
<path d="M11848 2613 c7 -3 16 -2 19 1 4 3 -2 6 -13 5 -11 0 -14 -3 -6 -6z"/>
<path d="M11968 2613 c7 -3 16 -2 19 1 4 3 -2 6 -13 5 -11 0 -14 -3 -6 -6z"/>
<path d="M4122 2575 c0 -16 2 -22 5 -12 2 9 2 23 0 30 -3 6 -5 -1 -5 -18z"/>
<path d="M4140 2565 c0 -16 16 -20 24 -6 3 5 -1 11 -9 15 -9 3 -15 0 -15 -9z"/>
<path d="M4305 2540 c3 -5 10 -10 16 -10 5 0 9 5 9 10 0 6 -7 10 -16 10 -8 0
-12 -4 -9 -10z"/>
<path d="M4260 2530 c0 -5 5 -10 10 -10 6 0 10 5 10 10 0 6 -4 10 -10 10 -5 0
-10 -4 -10 -10z"/>
<path d="M10236 2525 c-8 -23 -8 -25 8 -25 8 0 13 7 12 15 -3 23 -13 27 -20
10z"/>
<path d="M10200 2520 c-8 -5 -12 -11 -9 -14 2 -3 11 -1 19 4 8 5 12 11 9 14
-2 3 -11 1 -19 -4z"/>
<path d="M10160 2421 c0 -9 30 -24 36 -18 2 1 -6 8 -16 15 -11 7 -20 8 -20 3z"/>
<path d="M10280 2361 c0 -6 4 -13 10 -16 6 -3 7 1 4 9 -7 18 -14 21 -14 7z"/>
<path d="M10230 2350 c0 -13 11 -13 30 0 12 8 11 10 -7 10 -13 0 -23 -4 -23
-10z"/>
<path d="M5861 2324 c0 -11 3 -14 6 -6 3 7 2 16 -1 19 -3 4 -6 -2 -5 -13z"/>
<path d="M10255 2330 c-19 -7 -19 -8 -2 -15 19 -8 31 -2 26 13 -2 5 -13 6 -24
2z"/>
<path d="M10211 2300 c0 -33 1 -34 11 -12 8 17 8 26 0 34 -9 9 -12 4 -11 -22z"/>
<path d="M10295 2320 c3 -5 8 -10 11 -10 2 0 4 5 4 10 0 6 -5 10 -11 10 -5 0
-7 -4 -4 -10z"/>
<path d="M10791 2304 c0 -11 3 -14 6 -6 3 7 2 16 -1 19 -3 4 -6 -2 -5 -13z"/>
<path d="M12820 2280 c0 -5 5 -10 11 -10 5 0 7 5 4 10 -3 6 -8 10 -11 10 -2 0
-4 -4 -4 -10z"/>
<path d="M10820 2270 c0 -5 5 -10 11 -10 5 0 7 5 4 10 -3 6 -8 10 -11 10 -2 0
-4 -4 -4 -10z"/>
<path d="M6035 2260 c-3 -5 -1 -10 4 -10 6 0 11 5 11 10 0 6 -2 10 -4 10 -3 0
-8 -4 -11 -10z"/>
<path d="M10304 2245 c-4 -8 -11 -12 -17 -8 -6 3 -7 1 -3 -5 10 -16 14 -15 26
8 6 11 8 20 5 20 -3 0 -8 -7 -11 -15z"/>
<path d="M5847 2233 c-12 -15 -13 -20 -2 -30 7 -6 15 -9 19 -6 3 3 12 1 20 -6
11 -9 15 -8 20 4 3 8 11 15 17 15 8 0 7 -6 -2 -17 -13 -16 -12 -17 3 -4 21 16
13 35 -13 28 -10 -3 -18 -2 -17 2 4 34 -19 42 -45 14z"/>
<path d="M12910 2240 c0 -5 5 -10 11 -10 5 0 7 5 4 10 -3 6 -8 10 -11 10 -2 0
-4 -4 -4 -10z"/>
<path d="M11385 2230 c19 -8 19 -9 -2 -9 -13 -1 -23 -6 -23 -12 0 -7 9 -9 23
-5 12 3 36 6 52 7 20 1 24 3 11 6 -15 4 -16 7 -5 14 9 6 -1 9 -31 8 -34 0 -40
-2 -25 -9z"/>
<path d="M11195 2190 c3 -5 10 -10 16 -10 5 0 9 5 9 10 0 6 -7 10 -16 10 -8 0
-12 -4 -9 -10z"/>
<path d="M11488 2193 c7 -3 16 -2 19 1 4 3 -2 6 -13 5 -11 0 -14 -3 -6 -6z"/>
<path d="M10068 2183 c7 -3 16 -2 19 1 4 3 -2 6 -13 5 -11 0 -14 -3 -6 -6z"/>
<path d="M9553 2173 c9 -2 23 -2 30 0 6 3 -1 5 -18 5 -16 0 -22 -2 -12 -5z"/>
<path d="M11508 2173 c7 -3 16 -2 19 1 4 3 -2 6 -13 5 -11 0 -14 -3 -6 -6z"/>
<path d="M5937 2161 c-16 -6 -17 -9 -4 -19 11 -10 17 -9 26 2 14 17 3 26 -22
17z"/>
<path d="M9910 2150 c0 -5 5 -10 10 -10 6 0 10 5 10 10 0 6 -4 10 -10 10 -5 0
-10 -4 -10 -10z"/>
<path d="M13884 2125 c-4 -10 -22 -15 -53 -16 l-46 -2 40 -7 c22 -4 32 -8 23
-9 -10 0 -18 -5 -18 -11 0 -13 97 -13 105 -1 3 5 -3 12 -12 14 -10 3 14 6 52
7 39 1 64 4 58 7 -7 2 -13 11 -13 19 0 21 -128 20 -136 -1z"/>
<path d="M13960 1969 c0 -5 5 -7 10 -4 6 3 10 8 10 11 0 2 -4 4 -10 4 -5 0
-10 -5 -10 -11z"/>
<path d="M14271 1964 c0 -11 3 -14 6 -6 3 7 2 16 -1 19 -3 4 -6 -2 -5 -13z"/>
<path d="M14291 1964 c0 -11 3 -14 6 -6 3 7 2 16 -1 19 -3 4 -6 -2 -5 -13z"/>
<path d="M14311 1964 c0 -11 3 -14 6 -6 3 7 2 16 -1 19 -3 4 -6 -2 -5 -13z"/>
<path d="M5325 1950 c-3 -5 -2 -10 4 -10 5 0 13 5 16 10 3 6 2 10 -4 10 -5 0
-13 -4 -16 -10z"/>
<path d="M14000 1956 c0 -2 7 -7 16 -10 8 -3 12 -2 9 4 -6 10 -25 14 -25 6z"/>
<path d="M14273 1917 c0 -8 6 -14 14 -14 9 0 10 4 2 14 -6 7 -12 13 -14 13 -1
0 -2 -6 -2 -13z"/>
<path d="M14385 1901 c3 -5 -9 -12 -27 -14 l-33 -5 34 2 c19 0 36 7 39 14 2 6
-1 12 -8 12 -6 0 -9 -4 -5 -9z"/>
<path d="M17920 1895 c0 -8 9 -10 25 -7 14 2 25 6 25 7 0 1 -11 5 -25 7 -16 3
-25 1 -25 -7z"/>
<path d="M17258 1883 c29 -2 74 -2 100 0 26 2 2 3 -53 3 -55 0 -76 -1 -47 -3z"/>
<path d="M6810 1874 c0 -3 8 -13 17 -22 16 -16 16 -16 11 0 -4 9 -2 19 5 22 7
2 2 5 -10 5 -13 1 -23 -2 -23 -5z"/>
<path d="M6957 1833 c-3 -5 5 -8 18 -8 13 0 21 3 18 8 -2 4 -10 7 -18 7 -8 0
-16 -3 -18 -7z"/>
<path d="M6922 1804 c-7 -8 -8 -14 -3 -14 10 0 25 19 20 25 -2 1 -10 -3 -17
-11z"/>
<path d="M6965 1770 c-3 -5 1 -10 10 -10 9 0 13 5 10 10 -3 6 -8 10 -10 10 -2
0 -7 -4 -10 -10z"/>
<path d="M8020 1750 c0 -5 5 -10 11 -10 5 0 7 5 4 10 -3 6 -8 10 -11 10 -2 0
-4 -4 -4 -10z"/>
<path d="M7350 1736 c0 -8 71 -12 76 -4 3 4 -13 8 -35 8 -23 0 -41 -2 -41 -4z"/>
<path d="M7448 1733 c6 -2 18 -2 25 0 6 3 1 5 -13 5 -14 0 -19 -2 -12 -5z"/>
<path d="M7490 1730 c0 -5 5 -10 10 -10 6 0 10 5 10 10 0 6 -4 10 -10 10 -5 0
-10 -4 -10 -10z"/>
<path d="M7560 1730 c0 -12 27 -12 55 0 16 7 13 9 -17 9 -21 1 -38 -3 -38 -9z"/>
<path d="M7828 1723 c6 -2 18 -2 25 0 6 3 1 5 -13 5 -14 0 -19 -2 -12 -5z"/>
<path d="M8241 1714 c0 -11 3 -14 6 -6 3 7 2 16 -1 19 -3 4 -6 -2 -5 -13z"/>
<path d="M8180 1701 c-17 -18 -22 -64 -7 -54 6 4 8 -1 4 -10 -3 -10 -2 -17 4
-17 5 0 12 7 15 15 4 8 10 12 15 9 5 -3 9 0 9 5 0 6 -7 11 -15 11 -16 0 -17
30 -1 41 4 4 4 9 0 11 -5 3 -16 -2 -24 -11z"/>
<path d="M7570 1701 c0 -5 9 -7 20 -4 11 3 20 7 20 9 0 2 -9 4 -20 4 -11 0
-20 -4 -20 -9z"/>
<path d="M7869 1704 c17 -3 32 -12 34 -20 3 -9 4 -8 3 3 -1 13 -11 19 -34 21
-31 2 -31 2 -3 -4z"/>
<path d="M14644 1670 c2 -16 20 -14 24 2 3 10 2 10 -6 -1 -7 -9 -11 -10 -15
-2 -4 7 -5 8 -3 1z"/>
</g>
</svg>
